<?xml version="1.0" standalone="no"?>
<!DOCTYPE svg PUBLIC "-//W3C//DTD SVG 20010904//EN"
 "http://www.w3.org/TR/2001/REC-SVG-20010904/DTD/svg10.dtd">
<svg version="1.0" xmlns="http://www.w3.org/2000/svg"
 width="6720.000000pt" height="4480.000000pt" viewBox="0 0 6720.000000 4480.000000"
 preserveAspectRatio="xMidYMid meet">

<g transform="translate(0.000000,4480.000000) scale(0.100000,-0.100000)"
fill="#000000" stroke="none">
<path d="M0 22400 l0 -22400 33600 0 33600 0 0 22400 0 22400 -33600 0 -33600
0 0 -22400z m29840 20400 c0 -5 -5 -10 -11 -10 -5 0 -7 5 -4 10 3 6 8 10 11
10 2 0 4 -4 4 -10z m478 -246 c43 -30 24 -64 -37 -64 -63 0 -83 64 -23 73 15
2 29 5 32 6 3 0 16 -6 28 -15z m-26140 -1675 c4 -19 -27 -34 -41 -20 -14 14 0
43 20 39 10 -2 19 -10 21 -19z m35172 -329 c-6 -4 -10 -12 -8 -17 5 -19 -14
-19 -26 0 -13 20 7 39 31 30 10 -4 11 -8 3 -13z m-15520 -255 c7 -8 17 -15 23
-15 6 0 21 -10 34 -22 18 -16 23 -32 23 -69 0 -52 -11 -65 -69 -87 -106 -41
-126 -27 -117 77 9 90 29 131 67 131 15 0 32 -7 39 -15z m677 -161 c29 -8 20
-24 -13 -24 -15 0 -24 6 -24 15 0 17 4 18 37 9z m14513 -337 c18 -38 13 -73
-15 -109 -25 -34 -72 -47 -81 -23 -4 9 -1 27 6 39 12 24 6 66 -11 66 -5 0 -9
15 -9 34 0 28 4 35 23 38 37 6 71 -11 87 -45z m-9550 -116 c66 -23 117 -70
126 -119 4 -19 3 -69 -1 -111 -4 -42 -9 -107 -11 -146 -2 -48 -9 -77 -22 -95
-11 -14 -27 -51 -35 -81 -19 -63 -64 -118 -80 -97 -6 9 -7 6 -4 -10 3 -12 -1
-29 -9 -36 -8 -8 -14 -18 -14 -23 0 -11 -40 -46 -40 -35 -1 19 -60 -104 -60
-124 0 -13 -18 -57 -40 -99 -22 -42 -40 -82 -40 -89 0 -7 -9 -38 -21 -67 -44
-111 -78 -163 -173 -261 l-49 -51 -46 11 c-29 7 -48 7 -52 1 -3 -6 -10 -9 -15
-8 -5 1 -26 1 -48 0 -37 -1 -38 -2 -33 -29 7 -34 -22 -87 -51 -96 -22 -7 -36
-45 -26 -70 14 -36 -7 -103 -49 -159 -23 -31 -55 -87 -70 -124 -15 -38 -32
-75 -37 -83 -5 -8 -20 -35 -32 -60 -13 -25 -26 -47 -29 -50 -3 -3 -27 -36 -54
-75 -26 -38 -72 -94 -102 -125 -75 -76 -75 -77 -110 -150 -17 -36 -40 -75 -52
-87 -12 -12 -21 -27 -21 -33 0 -5 -4 -10 -8 -10 -4 0 -16 -14 -26 -30 -25 -43
-90 -105 -181 -172 -5 -4 -48 -36 -94 -70 -100 -75 -139 -97 -161 -91 -26 7
-99 -16 -119 -36 -10 -10 -25 -23 -34 -27 -20 -12 -87 -93 -87 -106 0 -6 18
-7 45 -4 34 5 47 3 51 -7 6 -17 -53 -138 -73 -150 -7 -4 -22 -27 -32 -51 -11
-23 -27 -49 -36 -56 -8 -7 -15 -22 -15 -35 0 -12 -9 -30 -20 -40 -11 -10 -20
-26 -20 -36 0 -12 -5 -16 -14 -13 -8 3 -23 1 -33 -5 -17 -10 -17 -10 0 -11 9
0 17 -5 17 -11 0 -6 -7 -8 -16 -5 -11 4 -18 -1 -21 -15 -4 -16 -8 -17 -14 -7
-6 9 -9 9 -9 1 0 -7 -11 -23 -25 -37 -14 -14 -25 -32 -25 -41 0 -8 -7 -15 -15
-15 -21 0 -19 13 9 45 25 29 26 45 2 45 -7 0 -33 -15 -57 -34 -32 -26 -47 -48
-60 -85 -16 -49 -15 -51 2 -51 11 0 19 5 19 10 0 6 13 10 29 10 17 0 33 5 36
10 4 6 11 7 17 4 7 -5 9 -1 5 9 -4 11 -1 17 8 17 7 0 16 13 20 29 3 17 14 31
26 34 10 3 19 3 19 0 0 -14 -66 -178 -72 -181 -5 -2 -8 -9 -8 -15 0 -6 -9 -20
-19 -31 -11 -12 -32 -45 -46 -75 -15 -29 -35 -55 -44 -58 -9 -2 -25 -17 -36
-33 -11 -16 -26 -31 -35 -35 -30 -11 -61 -33 -60 -41 0 -5 -7 -10 -17 -12 -10
-1 -38 -20 -63 -42 -24 -21 -48 -36 -52 -34 -16 10 -7 45 16 69 13 13 21 26
19 29 -3 3 0 12 6 20 7 8 10 19 7 25 -6 8 133 205 183 259 11 12 17 22 13 22
-10 0 -39 -22 -101 -75 -26 -22 -63 -53 -84 -69 -20 -16 -37 -34 -37 -39 0
-12 -50 -71 -50 -60 -1 4 -8 -4 -16 -19 -8 -16 -19 -28 -24 -28 -6 0 -10 -7
-10 -15 0 -8 -7 -15 -16 -15 -8 0 -13 -4 -10 -9 7 -11 -99 -111 -140 -131 -16
-8 -46 -30 -68 -48 -21 -19 -55 -41 -75 -49 -20 -8 -72 -32 -116 -53 -44 -21
-101 -40 -127 -43 -69 -7 -107 -43 -158 -152 -24 -49 -51 -99 -60 -110 -10
-11 -26 -34 -37 -51 -67 -116 -81 -145 -93 -196 -7 -32 -17 -58 -22 -58 -4 0
-8 -9 -8 -20 0 -11 -6 -23 -14 -26 -8 -3 -13 -11 -10 -19 3 -7 -4 -15 -15 -18
-15 -4 -19 -10 -14 -24 3 -10 3 -15 -2 -11 -4 4 -17 -9 -27 -30 -26 -48 -48
-72 -65 -72 -11 0 -13 8 -8 33 4 17 11 34 15 37 5 3 11 23 15 45 4 22 16 58
26 79 11 22 19 44 19 49 0 5 8 21 18 35 10 15 29 56 41 91 13 35 31 77 41 93
10 16 15 39 12 50 -4 17 -2 20 11 15 11 -4 17 -1 17 8 0 8 -6 15 -12 16 -10 0
-10 2 0 6 6 2 12 11 12 18 0 8 6 20 13 27 7 7 21 27 31 43 19 29 123 140 236
251 30 30 73 63 96 74 23 11 55 35 71 53 17 19 60 49 96 67 55 29 67 32 81 21
9 -7 16 -22 16 -32 0 -12 7 -19 20 -19 11 0 20 4 20 10 0 5 16 27 35 49 19 21
35 42 35 46 0 4 14 21 31 37 17 17 40 49 50 72 11 22 42 76 69 118 27 43 54
98 60 123 14 61 56 144 89 175 15 14 47 50 71 80 25 30 59 68 75 86 17 17 41
47 54 66 14 19 37 43 52 54 15 10 26 21 23 25 -2 4 22 40 54 81 53 66 108 119
243 235 82 70 177 170 184 194 10 30 83 132 153 213 30 33 59 71 64 84 6 12
17 22 25 22 7 0 13 4 13 9 0 12 46 58 94 96 21 17 50 41 65 54 14 13 41 36 59
52 35 31 112 136 112 152 0 6 6 18 14 26 7 9 32 51 55 95 40 75 83 141 154
233 88 117 101 138 103 180 3 48 25 77 67 87 15 3 27 10 27 15 0 4 11 21 25
37 14 16 25 40 25 54 0 14 14 40 30 59 17 18 30 38 30 43 0 23 114 147 135
148 6 0 20 18 32 39 25 44 120 151 134 151 5 0 27 11 49 25 27 17 40 33 41 48
0 21 1 21 9 2 7 -16 9 -16 9 -4 1 9 12 20 25 23 26 6 34 27 40 109 2 27 8 53
15 60 15 15 14 59 -4 93 -20 38 -19 83 5 222 11 65 22 144 24 177 6 87 11 95
60 95 22 -1 66 -9 96 -19z m9461 -162 c9 -18 17 -20 55 -14 53 8 80 -6 89 -44
7 -35 19 -46 59 -55 17 -4 42 -16 57 -27 15 -10 31 -19 35 -19 20 0 94 -92 94
-117 0 -26 0 -26 -57 -18 -32 4 -74 7 -93 6 -19 0 -75 -3 -125 -5 -77 -4 -103
0 -184 24 -125 37 -134 51 -71 109 32 29 44 50 56 97 9 32 20 65 26 72 16 19
46 14 59 -9z m-5176 -95 c14 -9 39 -40 56 -70 17 -30 36 -60 42 -67 32 -33
117 -211 117 -244 0 -7 8 -32 19 -55 17 -40 60 -202 80 -308 5 -25 16 -70 24
-100 8 -30 22 -102 31 -160 20 -135 24 -155 40 -215 17 -60 36 -183 36 -228 0
-20 -13 -52 -35 -86 -19 -29 -35 -65 -35 -81 0 -35 20 -81 31 -74 13 8 11 -90
-2 -103 -7 -7 -7 -17 -1 -29 5 -11 17 -35 26 -54 23 -48 57 -111 78 -142 10
-15 27 -61 38 -104 12 -42 24 -84 29 -93 4 -9 14 -43 21 -76 7 -33 24 -85 38
-115 14 -30 26 -59 28 -65 19 -75 44 -206 44 -232 0 -18 9 -71 20 -118 11 -48
18 -90 16 -93 -2 -4 0 -108 5 -232 l8 -225 -25 -50 c-24 -49 -27 -96 -9 -124
5 -9 4 -12 -2 -8 -16 10 -39 -51 -24 -66 6 -6 11 -30 11 -53 0 -25 6 -47 15
-54 8 -7 13 -16 10 -20 -2 -4 9 -20 25 -35 17 -16 39 -53 50 -82 11 -30 26
-64 34 -76 7 -12 16 -46 19 -76 4 -29 13 -64 22 -77 8 -13 15 -30 15 -39 0 -8
11 -48 25 -87 21 -60 25 -88 23 -173 -1 -56 2 -107 5 -113 4 -5 4 -63 1 -127
-7 -121 -8 -124 -74 -202 -13 -16 -13 -53 0 -53 6 0 10 8 11 18 0 13 3 11 10
-6 5 -13 13 -21 18 -17 16 9 23 -15 16 -53 -7 -35 -8 -35 -15 -12 l-6 25 -8
-22 c-11 -34 -55 -42 -77 -15 -9 12 -23 22 -31 23 -10 0 -10 2 0 6 17 7 15 30
-3 37 -8 3 -15 12 -15 20 0 7 -6 26 -14 41 -17 32 -13 44 27 103 25 38 33 56
36 84 1 4 13 18 27 32 24 21 27 32 29 100 2 42 -1 79 -6 81 -14 9 -109 172
-121 207 -6 18 -21 47 -34 64 -40 54 -121 274 -109 294 6 9 -19 150 -32 180
-3 8 -7 29 -9 45 -1 17 -12 58 -23 90 -38 110 -49 314 -42 748 1 81 -4 128
-20 190 -11 45 -24 87 -28 92 -4 6 -14 26 -21 45 -8 19 -25 46 -37 60 -30 33
-90 220 -108 340 -4 25 -12 54 -18 65 -15 29 -47 163 -47 199 0 17 -6 51 -14
76 -28 94 -36 423 -17 707 12 176 7 224 -31 290 -12 21 -28 50 -35 65 -8 15
-20 31 -27 35 -19 12 -115 197 -136 262 -9 31 -18 69 -18 84 -1 15 -6 36 -11
46 -12 22 -23 214 -15 247 7 29 42 32 79 8z m-134 -444 c5 0 9 -5 9 -12 0 -6
11 -25 24 -42 13 -17 26 -47 30 -66 12 -58 37 -142 58 -195 11 -27 22 -79 25
-115 2 -36 8 -78 14 -94 12 -38 11 -68 -2 -103 -15 -38 -22 -132 -11 -146 5
-7 8 -22 7 -34 -1 -13 2 -23 7 -23 18 0 26 -48 16 -90 -9 -35 -9 -45 4 -54 8
-6 18 -20 23 -31 13 -32 20 -436 10 -590 -4 -49 -8 -120 -10 -156 -1 -36 -8
-76 -14 -87 -6 -11 -11 -32 -11 -46 0 -14 -5 -28 -11 -32 -6 -3 -9 -17 -6 -30
5 -28 -23 -57 -50 -52 -10 2 -39 38 -66 83 -45 74 -48 84 -45 132 3 29 1 50
-4 47 -4 -3 -8 1 -8 8 -1 8 -5 7 -14 -5 -10 -13 -16 -15 -22 -6 -5 9 -10 7
-20 -5 -7 -11 -18 -15 -25 -10 -7 4 -10 3 -6 -4 9 -14 -3 -43 -14 -36 -5 3 -9
-1 -10 -8 0 -7 -7 9 -14 36 -15 53 -7 86 21 86 10 0 13 7 8 24 -3 13 -1 27 5
30 6 4 11 16 11 27 0 10 4 19 9 19 6 0 7 33 4 78 -6 74 -5 76 12 62 17 -14 18
-13 12 3 -4 11 -2 17 8 17 8 0 15 5 15 11 0 21 42 69 58 67 9 -2 17 2 17 7 0
6 3 15 7 20 8 14 7 118 -2 130 -4 6 -11 25 -15 43 -3 18 -15 37 -26 42 -10 6
-19 17 -19 25 0 8 -4 15 -9 15 -12 0 -20 49 -10 56 5 3 9 10 9 15 0 6 -4 7
-10 4 -5 -3 -10 -2 -10 4 0 13 17 23 22 12 1 -5 17 -6 35 -4 39 6 34 29 -8 38
-16 4 -29 13 -29 20 0 7 -12 16 -27 20 -49 11 -73 39 -73 85 0 28 -4 39 -11
34 -20 -12 -26 17 -12 58 7 22 11 48 9 57 -3 9 -8 57 -11 106 -8 153 -17 218
-26 204 -6 -10 -9 -8 -9 9 0 12 -4 22 -9 22 -9 0 -10 -3 -11 -112 -1 -38 -5
-68 -10 -68 -12 0 15 -71 31 -81 11 -7 11 -9 1 -9 -9 0 -13 -11 -12 -32 1 -18
2 -43 1 -56 -1 -21 -2 -22 -25 -7 -13 9 -27 28 -32 43 -11 41 -13 282 -2 326
7 28 6 46 -5 70 -27 57 -8 266 24 266 3 0 12 -22 19 -50 7 -27 17 -50 22 -50
4 0 8 -7 8 -16 0 -10 6 -14 15 -10 8 3 19 -3 25 -12 10 -15 11 -14 7 6 -6 24
21 45 58 46 13 1 18 6 16 16 -3 8 -5 29 -5 45 -1 23 3 29 16 27 9 -1 20 3 25
10 6 9 9 6 11 -9 2 -13 8 -23 13 -23z m32053 -96 c4 -10 1 -14 -6 -12 -15 5
-23 28 -10 28 5 0 13 -7 16 -16z m526 -64 c0 -5 -4 -10 -10 -10 -5 0 -10 5
-10 10 0 6 5 10 10 10 6 0 10 -4 10 -10z m-2855 -250 c3 -5 -3 -10 -14 -10
-10 0 -26 -3 -35 -6 -9 -3 -16 -1 -16 4 0 18 55 28 65 12z m-5 -35 c0 -8 -7
-15 -15 -15 -26 0 -18 20 13 29 1 1 2 -6 2 -14z m-34380 -344 c0 -11 -58 -61
-71 -61 -22 0 -5 28 31 53 27 19 40 21 40 8z m35760 -61 c0 -5 -8 -10 -17 -10
-15 0 -16 2 -3 10 19 12 20 12 20 0z m-42 -22 c-7 -19 -38 -22 -38 -4 0 10 9
16 21 16 12 0 19 -5 17 -12z m-925 -34 c9 -3 13 -13 10 -25 -4 -13 0 -19 12
-19 9 0 15 -6 12 -12 -2 -7 -12 -12 -21 -12 -13 2 -14 -1 -5 -12 9 -11 8 -14
-2 -14 -24 0 -37 14 -39 40 -5 59 0 67 33 54z m1677 -309 c0 -8 -4 -15 -10
-15 -5 0 -7 7 -4 15 4 8 8 15 10 15 2 0 4 -7 4 -15z m-31850 -185 c0 -5 -4
-10 -10 -10 -5 0 -10 5 -10 10 0 6 5 10 10 10 6 0 10 -4 10 -10z m30410 -145
c0 -8 -7 -15 -15 -15 -26 0 -18 20 13 29 1 1 2 -6 2 -14z m7 -41 c-3 -3 -12
-4 -19 -1 -8 3 -5 6 6 6 11 1 17 -2 13 -5z m-677 -128 c0 -8 6 -16 13 -19 6
-2 9 -8 4 -12 -4 -5 -14 0 -22 11 -17 23 -19 34 -5 34 6 0 10 -6 10 -14z m176
-4 c6 -4 14 -17 18 -29 6 -19 4 -23 -16 -23 -19 0 -23 6 -24 30 -1 31 3 35 22
22z m-43149 -16 c9 -7 73 -169 73 -185 0 -40 55 -155 95 -197 22 -23 69 -59
103 -79 36 -21 105 -78 156 -129 192 -191 289 -380 366 -711 29 -126 28 -119
40 -240 10 -112 26 -162 113 -375 63 -151 81 -265 82 -495 0 -233 -8 -212 130
-355 45 -47 90 -100 99 -119 10 -18 33 -55 52 -81 19 -26 34 -50 34 -53 0 -3
20 -40 45 -82 78 -131 125 -232 149 -323 14 -48 36 -124 49 -168 14 -47 28
-123 32 -175 8 -114 24 -183 81 -357 64 -192 112 -410 130 -587 6 -62 10 -69
37 -84 17 -9 53 -35 81 -58 28 -24 69 -52 91 -64 22 -12 54 -34 72 -49 17 -16
62 -44 100 -64 88 -46 134 -85 186 -155 22 -31 68 -85 102 -121 187 -203 342
-399 377 -476 10 -24 35 -56 55 -71 19 -16 63 -52 97 -82 33 -29 79 -62 101
-73 46 -23 107 -72 215 -173 229 -214 317 -320 351 -425 60 -185 56 -179 114
-195 31 -9 64 -28 81 -45 16 -17 58 -51 94 -77 36 -26 99 -79 141 -119 41 -39
91 -79 110 -89 56 -28 116 -94 196 -213 41 -61 80 -118 86 -125 7 -7 39 -53
73 -102 98 -145 138 -265 174 -525 10 -74 30 -180 43 -235 64 -263 66 -278 54
-640 -3 -104 -1 -222 4 -262 14 -108 73 -274 130 -367 86 -141 132 -386 100
-528 -25 -110 -98 -246 -194 -362 -54 -66 -81 -114 -92 -164 -4 -19 -8 -138
-9 -265 l-3 -232 -35 -60 c-19 -33 -56 -96 -81 -140 -41 -71 -67 -106 -164
-219 -13 -17 -54 -74 -89 -128 -35 -53 -87 -125 -115 -160 -28 -35 -64 -88
-79 -118 -15 -30 -47 -75 -70 -100 -61 -65 -133 -157 -169 -216 -43 -71 -110
-102 -401 -188 -178 -53 -284 -63 -415 -41 -65 11 -138 15 -228 13 l-132 -3
-120 -52 c-100 -43 -136 -53 -215 -62 -182 -20 -342 -24 -425 -11 -181 27
-383 94 -517 172 l-37 21 -85 -28 c-81 -26 -90 -27 -158 -17 -40 6 -93 14
-118 17 -25 3 -72 14 -105 24 -33 11 -79 24 -102 30 -39 11 -158 92 -223 153
-14 13 -45 39 -70 57 -25 19 -102 92 -172 163 -147 148 -133 142 -364 158
-154 10 -193 19 -339 76 -206 81 -361 175 -451 277 -21 23 -83 89 -138 147
-77 81 -113 128 -153 201 -29 53 -53 103 -53 112 0 30 -46 66 -155 122 -219
111 -453 304 -691 570 -169 188 -223 263 -290 395 -24 49 -44 92 -44 95 0 4
-29 69 -64 144 -76 162 -90 220 -82 348 6 102 -2 130 -44 168 -70 63 -147 188
-265 430 -48 99 -105 214 -126 255 -69 131 -96 191 -169 375 -133 336 -198
548 -220 715 -7 53 -19 88 -41 125 -50 82 -126 172 -182 215 -28 23 -70 58
-92 79 -22 20 -55 49 -73 64 -19 15 -62 63 -97 106 -35 43 -78 89 -96 102 -81
60 -162 158 -233 284 -16 28 -45 70 -65 94 -56 71 -76 103 -121 198 -112 234
-120 255 -165 407 -15 49 -38 114 -51 145 -14 31 -34 102 -44 159 -11 56 -28
140 -39 185 -10 45 -22 113 -26 152 -4 38 -18 101 -32 140 -26 71 -159 301
-265 456 -32 47 -74 119 -94 159 -20 41 -60 115 -90 165 -83 142 -116 232
-117 327 -2 62 1 82 14 91 9 7 23 26 32 42 9 17 29 45 45 62 28 31 30 32 46
15 9 -11 16 -36 16 -58 0 -40 3 -51 39 -186 24 -94 33 -112 91 -178 150 -175
179 -210 212 -257 50 -70 70 -113 103 -216 15 -48 45 -116 67 -150 126 -200
351 -797 364 -967 7 -93 35 -174 91 -265 24 -38 56 -97 72 -130 28 -60 45 -77
246 -246 28 -23 75 -70 105 -105 30 -35 74 -79 97 -98 22 -20 53 -57 69 -83
15 -27 53 -83 85 -125 32 -43 67 -97 77 -121 21 -47 177 -314 225 -385 16 -24
66 -115 110 -203 45 -88 94 -183 109 -212 36 -68 48 -130 57 -314 9 -176 11
-182 102 -244 127 -86 172 -149 328 -454 26 -49 55 -110 65 -135 11 -25 32
-72 47 -105 15 -33 31 -73 34 -90 4 -16 17 -59 29 -95 38 -108 66 -218 76
-296 9 -73 24 -141 62 -279 41 -154 60 -206 93 -252 56 -80 85 -139 100 -211
8 -38 19 -80 25 -93 14 -30 93 -87 182 -132 88 -45 178 -110 268 -195 69 -64
112 -95 239 -177 25 -16 116 -81 202 -145 166 -122 288 -243 357 -353 31 -49
97 -142 130 -182 4 -5 23 -33 41 -62 41 -63 57 -69 221 -89 69 -8 142 -17 163
-20 25 -4 37 -2 37 6 0 6 -60 73 -133 148 -146 151 -183 197 -312 387 -48 72
-93 135 -99 140 -20 18 -131 149 -157 185 -34 47 -139 218 -139 226 0 4 -30
61 -67 128 -58 105 -68 132 -79 206 -7 47 -13 102 -14 123 0 39 -31 177 -52
232 -10 27 -51 119 -96 215 -20 43 -126 224 -156 264 -41 58 -246 449 -246
471 0 2 -16 37 -36 77 -20 40 -58 125 -86 188 -48 110 -50 120 -58 240 -11
158 -26 236 -53 275 -12 16 -50 57 -85 90 -35 32 -71 73 -79 90 -9 16 -48 62
-87 101 -39 38 -97 106 -129 150 -31 43 -88 116 -125 160 -72 87 -130 181
-213 340 -28 54 -57 108 -64 119 -7 11 -25 54 -40 95 -26 70 -27 85 -26 215 2
132 0 146 -30 240 -18 55 -37 111 -43 124 -6 13 -54 57 -107 97 -52 39 -124
103 -158 141 -67 72 -213 283 -275 396 -20 37 -53 94 -74 125 -20 31 -52 86
-70 122 -19 35 -55 96 -80 135 -107 165 -219 455 -267 690 -17 82 -23 93 -103
171 -19 18 -79 61 -135 96 -100 62 -203 154 -293 263 -23 28 -70 83 -103 124
-34 41 -69 89 -77 107 -9 18 -27 40 -40 49 -54 35 -77 137 -33 148 33 9 21 26
-43 67 -92 58 -96 61 -110 94 -7 17 -23 42 -35 56 -13 14 -23 32 -24 40 0 8
-2 23 -4 34 -5 27 12 67 42 98 27 28 94 68 115 68 6 0 20 8 30 17 17 16 20 16
35 0 9 -9 23 -40 30 -69 8 -29 22 -71 32 -93 11 -22 22 -56 25 -76 4 -23 16
-43 36 -58 17 -12 30 -28 30 -36 0 -10 11 -15 33 -15 66 0 97 -59 97 -187 0
-70 2 -75 37 -114 21 -23 64 -60 98 -82 76 -52 155 -125 155 -144 0 -8 76 -92
168 -186 93 -95 205 -221 250 -282 44 -60 97 -131 116 -156 19 -25 44 -68 55
-95 10 -27 31 -76 45 -109 13 -33 29 -94 34 -135 5 -42 22 -107 37 -145 15
-39 34 -90 43 -114 10 -25 44 -74 77 -110 86 -94 167 -190 195 -231 13 -19 58
-82 100 -140 43 -58 97 -143 121 -190 23 -47 65 -120 91 -163 26 -43 48 -80
48 -82 0 -2 22 -41 49 -88 48 -84 76 -158 125 -335 14 -51 44 -129 66 -174 22
-45 40 -92 40 -105 0 -12 10 -68 22 -124 l22 -103 70 -69 c39 -38 96 -89 126
-113 74 -59 105 -97 201 -249 158 -250 244 -399 270 -467 12 -29 25 -62 30
-73 5 -11 30 -81 55 -155 25 -74 53 -154 61 -178 14 -37 14 -51 3 -96 -11 -45
-10 -61 3 -102 8 -27 18 -79 22 -116 8 -80 56 -180 126 -261 24 -28 63 -78 88
-112 24 -33 72 -88 106 -122 35 -35 77 -80 93 -101 38 -47 140 -245 174 -337
14 -38 44 -111 67 -162 22 -51 45 -123 51 -160 14 -85 69 -244 120 -348 6 -11
15 -44 20 -74 16 -88 50 -133 163 -218 68 -51 137 -116 207 -195 133 -151 120
-135 158 -195 18 -28 37 -53 41 -55 4 -2 32 -37 63 -78 31 -41 88 -109 127
-152 39 -42 71 -79 71 -83 0 -5 45 -57 89 -102 11 -12 79 -99 190 -243 14 -19
38 -30 92 -43 95 -23 507 -225 604 -297 46 -34 77 -50 90 -47 11 3 75 20 142
40 103 30 147 37 295 47 95 6 216 18 268 26 52 8 145 19 206 24 68 5 141 18
190 33 48 15 118 27 179 31 63 4 148 19 230 41 72 19 148 37 170 40 89 13 144
27 154 39 16 19 72 136 121 252 49 115 57 126 180 259 66 72 102 121 127 173
53 111 283 357 416 445 32 21 92 68 135 104 42 37 103 83 135 104 31 20 71 52
88 70 l31 33 -7 91 c-4 49 -13 123 -21 164 -9 47 -11 100 -8 142 5 45 2 89 -9
135 -33 144 -29 425 10 801 5 52 5 54 -75 175 -45 68 -110 161 -144 207 -35
46 -82 117 -105 158 -24 41 -52 82 -62 91 -34 28 -88 112 -142 217 -28 55 -69
129 -90 165 -21 36 -52 103 -70 150 -18 47 -45 104 -61 128 -43 62 -125 243
-163 357 -84 256 -97 310 -102 438 -3 76 -9 130 -17 142 -7 11 -51 51 -97 89
-46 38 -102 91 -124 118 -22 26 -60 60 -84 74 -24 14 -67 49 -96 78 -52 51
-231 270 -281 343 -38 57 -192 211 -266 268 -36 27 -76 65 -88 83 -13 18 -59
60 -103 95 -44 34 -96 76 -116 93 -20 17 -56 44 -81 61 -75 51 -206 209 -282
339 -9 16 -40 67 -68 114 -29 47 -69 119 -91 161 -21 42 -64 105 -96 141 -91
102 -123 142 -123 153 0 6 -11 30 -24 55 -13 25 -33 79 -46 120 -12 41 -38
113 -58 160 -19 47 -50 129 -68 183 -47 139 -147 281 -323 458 -75 75 -148
149 -162 165 -55 63 -139 218 -179 332 -11 30 -32 75 -47 100 -15 26 -46 85
-68 132 -23 47 -58 119 -78 160 -31 64 -138 378 -176 517 -10 35 -28 57 -104
123 -51 45 -99 94 -107 108 -8 15 -39 63 -69 107 -30 44 -71 105 -91 135 -41
60 -93 160 -105 200 -4 14 -22 61 -40 105 -81 196 -125 308 -125 320 0 12
-105 222 -159 318 -40 69 -62 138 -54 167 5 20 11 22 49 17 23 -2 46 -1 51 4
4 4 39 1 77 -7 38 -8 74 -13 80 -11 6 2 28 -10 50 -26 21 -17 55 -33 75 -36
32 -6 36 -10 39 -38 3 -27 -2 -34 -26 -47 -16 -8 -32 -22 -35 -30 -9 -22 55
-146 105 -201 48 -54 175 -213 249 -310 44 -59 90 -131 239 -375 42 -69 90
-145 108 -169 18 -24 41 -76 53 -115 38 -131 72 -220 135 -351 117 -244 217
-535 233 -683 l8 -73 102 -104 c55 -57 101 -108 101 -113 0 -5 38 -56 85 -113
105 -127 145 -187 171 -259 49 -130 60 -154 70 -157 15 -5 23 18 31 88 l6 58
-72 74 c-54 56 -75 87 -90 129 -11 31 -51 120 -89 197 -65 129 -99 182 -159
250 -12 14 -37 52 -54 86 -18 33 -47 83 -65 110 -38 59 -44 78 -129 405 -15
58 -36 135 -47 172 -21 72 -39 180 -64 380 -15 116 -15 135 0 220 8 51 19 150
22 220 7 120 6 130 -21 215 l-28 88 -114 110 c-113 108 -180 195 -253 330 -18
33 -36 62 -39 65 -19 15 -74 96 -116 170 -27 47 -61 105 -76 130 -25 41 -61
107 -126 232 l-25 47 28 36 c33 43 72 66 99 58 11 -3 21 -6 22 -7z m23920
-221 c63 -8 140 -54 148 -88 10 -37 -36 -155 -84 -220 -23 -32 -74 -95 -114
-141 -120 -141 -180 -215 -220 -275 -21 -31 -51 -69 -66 -86 -93 -99 -124
-185 -101 -280 19 -77 8 -164 -35 -285 -21 -58 -50 -143 -66 -190 -16 -46 -38
-104 -49 -127 -11 -24 -20 -49 -20 -57 0 -21 -39 -144 -62 -196 -11 -25 -51
-109 -89 -187 -38 -79 -69 -146 -69 -149 0 -3 -24 -58 -54 -123 -29 -64 -70
-154 -90 -201 -44 -101 -25 -70 -171 -284 -66 -97 -132 -200 -147 -229 -34
-67 -78 -198 -78 -234 0 -31 22 -142 38 -195 36 -114 45 -202 38 -393 -4 -104
-11 -332 -16 -505 -10 -338 -12 -356 -55 -470 -29 -79 -31 -105 -28 -350 1
-63 1 -151 0 -195 -1 -75 1 -86 41 -172 30 -64 49 -124 62 -195 25 -138 47
-294 49 -343 1 -22 8 -96 16 -165 8 -69 17 -186 20 -260 4 -74 13 -189 22
-255 18 -140 14 -252 -18 -435 -33 -194 -28 -218 71 -391 46 -79 91 -156 101
-170 32 -46 220 -430 296 -604 91 -208 204 -525 310 -875 34 -113 38 -135 36
-230 -1 -120 -13 -176 -52 -240 -46 -75 -46 -75 12 -137 73 -79 106 -109 152
-141 22 -15 47 -33 55 -41 8 -8 39 -30 70 -49 30 -20 81 -56 114 -81 81 -63
117 -90 173 -130 26 -19 89 -64 138 -101 50 -36 108 -74 130 -85 22 -11 96
-76 165 -145 69 -69 133 -131 142 -138 14 -11 32 -8 116 17 101 31 192 47 447
76 77 9 158 20 180 25 22 5 117 16 211 25 154 14 176 14 229 0 82 -21 130 -19
199 9 51 21 63 31 82 68 12 24 36 53 53 66 17 12 54 59 83 104 91 142 132 204
169 260 21 29 53 84 73 121 19 37 61 105 93 150 32 45 74 111 92 146 19 35 60
98 91 140 31 42 79 112 105 156 27 44 58 92 69 107 12 14 35 46 51 69 17 23
50 66 75 94 25 29 72 83 105 121 33 38 94 105 136 149 41 44 85 94 96 110 28
40 79 233 108 408 13 78 35 180 50 227 48 160 65 233 65 281 0 27 11 92 25
146 13 54 29 134 35 178 29 226 142 686 195 798 13 26 41 68 62 95 56 68 119
154 132 179 26 51 14 113 -48 238 -35 70 -64 145 -70 179 -6 33 -23 89 -37
125 -47 115 -55 161 -64 359 -5 106 -14 239 -20 295 -12 107 -9 207 15 447 24
230 35 312 52 365 39 127 64 195 87 236 53 94 72 268 41 379 -35 128 -66 267
-79 351 -11 76 -11 104 1 176 10 66 11 124 4 267 -8 161 -7 196 10 302 37 232
78 375 131 455 38 56 61 72 96 64 43 -10 105 -58 113 -87 4 -14 5 -79 4 -145
-2 -65 1 -123 6 -129 5 -6 9 -102 10 -215 1 -195 0 -207 -25 -276 -39 -109
-37 -119 39 -191 73 -70 90 -102 100 -191 7 -57 17 -82 79 -195 12 -23 28 -57
36 -76 8 -19 48 -80 89 -135 70 -95 169 -280 205 -385 8 -25 40 -110 71 -190
97 -250 114 -301 156 -460 22 -85 48 -177 57 -205 10 -34 16 -96 18 -191 2
-162 -1 -153 119 -345 40 -63 97 -165 128 -225 122 -241 216 -441 226 -479 40
-155 59 -314 71 -610 9 -211 8 -242 -11 -380 -19 -133 -21 -182 -16 -430 7
-371 -11 -521 -94 -782 -62 -192 -152 -381 -272 -573 -20 -30 -80 -103 -135
-162 -55 -59 -102 -118 -106 -132 -3 -13 -19 -53 -35 -88 -16 -35 -36 -79 -44
-98 -7 -19 -54 -89 -104 -155 -49 -66 -109 -156 -133 -200 -64 -117 -133 -210
-219 -296 -68 -67 -189 -178 -216 -197 -14 -10 -229 -185 -235 -192 -8 -8 -38
-25 -178 -101 -104 -57 -137 -80 -154 -108 -12 -20 -71 -87 -132 -149 -61 -62
-129 -143 -151 -179 -29 -48 -56 -77 -95 -104 -97 -65 -263 -147 -342 -168
-42 -12 -144 -46 -225 -77 l-148 -56 -195 5 c-107 3 -211 11 -230 17 -19 6
-83 15 -141 20 -112 9 -302 54 -401 96 -65 27 -97 29 -164 12 -42 -11 -53 -10
-122 14 -42 14 -95 29 -117 33 -22 4 -64 18 -93 31 -29 13 -59 24 -66 24 -7 0
-69 29 -139 65 -69 35 -145 72 -169 81 -46 17 -56 21 -128 53 -46 20 -194 50
-350 71 -145 19 -243 54 -292 103 -13 13 -58 47 -101 76 -48 32 -87 67 -104
94 -31 50 -39 57 -123 104 -36 20 -108 65 -161 100 -53 35 -103 63 -112 63
-26 0 -110 31 -138 51 -15 10 -54 25 -88 33 -105 25 -183 71 -301 181 -36 33
-105 89 -153 125 -95 70 -153 143 -203 257 -14 32 -45 85 -68 118 -64 90 -191
340 -216 425 -28 95 -97 295 -116 337 -14 32 -57 203 -69 273 -8 56 -71 128
-145 167 -36 19 -75 41 -87 49 -12 7 -27 14 -33 14 -35 0 -313 142 -450 230
-69 44 -161 98 -205 121 -44 23 -122 71 -174 108 -52 36 -112 79 -135 95 -105
73 -177 193 -263 441 -28 80 -36 119 -39 194 -4 82 -8 100 -32 139 -48 77 -81
146 -88 182 -4 19 -22 72 -40 117 -38 96 -70 250 -79 383 -3 52 -11 111 -17
130 -15 52 30 303 82 460 22 69 57 179 76 245 39 133 58 170 133 264 102 127
106 139 121 371 16 234 52 402 116 536 24 51 54 105 67 120 14 16 39 58 57 94
38 76 105 173 149 214 16 16 58 47 92 70 38 24 81 65 108 102 25 33 74 82 108
109 78 61 101 103 113 202 30 252 120 455 356 813 102 155 180 253 218 276 16
9 53 39 82 65 30 27 81 62 114 79 52 26 71 44 134 130 41 54 84 124 95 154 11
31 43 104 69 163 27 60 71 163 97 231 35 90 72 161 139 265 51 78 125 198 166
267 40 69 91 148 111 177 21 28 51 78 67 110 15 32 51 88 78 123 28 36 65 88
84 115 18 28 50 69 71 92 21 22 59 85 85 139 59 120 124 200 260 318 22 19 49
54 59 76 16 35 22 40 44 36 14 -3 49 -8 78 -11z m18097 -30 c-4 -8 -7 -15 -9
-15 -2 0 -5 7 -9 15 -3 9 0 15 9 15 9 0 12 -6 9 -15z m-47 -37 c-3 -8 -6 -5
-6 6 -1 11 2 17 5 13 3 -3 4 -12 1 -19z m4553 12 c0 -5 -4 -10 -10 -10 -5 0
-10 5 -10 10 0 6 5 10 10 10 6 0 10 -4 10 -10z m-449 -53 c-17 -17 -24 -1 -9
22 11 18 14 19 16 5 2 -9 -1 -21 -7 -27z m674 33 c3 -6 -4 -10 -17 -10 -18 0
-20 2 -8 10 19 12 18 12 25 0z m-2460 -8 c10 -7 35 -48 35 -57 0 -3 -7 -5 -15
-5 -8 0 -15 -4 -15 -10 0 -13 -36 -13 -61 1 -14 7 -18 16 -14 30 5 15 3 18
-12 12 -17 -6 -17 -5 1 15 19 22 61 29 81 14z m-31040 -39 c14 -16 27 -36 30
-45 4 -10 22 -41 41 -69 19 -28 34 -57 34 -65 0 -8 11 -32 25 -53 13 -22 27
-52 31 -68 3 -15 20 -46 37 -67 17 -21 36 -62 43 -90 22 -88 33 -119 70 -189
20 -38 42 -99 50 -136 13 -69 32 -228 32 -271 -1 -64 12 -210 22 -260 37 -179
27 -475 -16 -511 -12 -10 -20 -7 -44 16 -15 15 -34 25 -41 23 -16 -5 -49 27
-49 49 0 9 -11 39 -24 67 -14 31 -26 80 -30 125 -5 58 -11 77 -26 88 -22 15
-25 47 -10 87 12 32 34 35 25 4 -6 -17 -4 -20 10 -14 15 5 16 4 6 -8 -19 -22
5 -29 34 -10 14 9 28 28 31 43 3 14 7 31 9 38 2 6 0 13 -4 15 -5 2 -15 35 -24
73 -37 168 -75 287 -101 314 -14 15 -26 33 -26 40 0 7 -7 19 -15 27 -8 9 -15
29 -15 45 0 16 -5 29 -10 29 -11 0 -26 32 -32 66 -2 11 -9 25 -17 33 -8 10
-11 28 -8 53 3 21 1 38 -5 38 -5 0 -6 5 -3 10 4 6 -7 24 -25 40 -20 19 -30 23
-28 13 2 -9 -3 -18 -9 -20 -19 -7 -16 14 5 35 29 29 35 63 11 69 -10 3 -16 9
-13 14 3 5 -2 6 -10 3 -16 -6 -30 27 -22 54 3 9 8 71 11 137 4 66 11 124 16
130 13 13 11 35 -3 33 -18 -4 -23 72 -6 83 18 12 16 12 43 -18z m29900 -253
c-6 -9 -9 -9 -16 1 -10 17 0 34 13 21 6 -6 7 -16 3 -22z m649 -365 c3 -9 0
-15 -9 -15 -8 0 -15 7 -15 15 0 8 4 15 9 15 5 0 11 -7 15 -15z m-204 -29 c0
-3 -7 -6 -15 -6 -9 0 -12 -6 -9 -15 5 -12 -2 -15 -34 -15 -65 0 -65 46 -1 59
31 6 59 -5 59 -23z m-1294 -112 c-3 -9 -6 -18 -6 -20 0 -3 -4 -3 -10 1 -11 7
-2 35 12 35 6 0 7 -7 4 -16z m44 -23 c0 -6 -4 -13 -10 -16 -5 -3 -10 1 -10 9
0 9 5 16 10 16 6 0 10 -4 10 -9z m2380 -323 c0 -6 -7 -5 -15 2 -8 7 -15 17
-15 22 0 6 7 5 15 -2 8 -7 15 -17 15 -22z m-2390 -47 c12 -23 13 -41 2 -59 -7
-10 -16 -9 -45 3 -29 12 -37 21 -37 41 0 21 4 24 20 19 11 -4 20 -2 20 4 0 18
29 12 40 -8z m3443 -126 c-3 -8 -9 -15 -14 -15 -10 0 -12 24 -3 33 11 11 24
-3 17 -18z m7 -35 c0 -5 -4 -10 -10 -10 -5 0 -10 5 -10 10 0 6 5 10 10 10 6 0
10 -4 10 -10z m-5892 -93 c-3 -26 -8 -32 -35 -38 -39 -8 -48 -1 -47 31 2 45 4
49 27 52 38 7 59 -10 55 -45z m-33452 -79 c-9 -5 -16 -18 -16 -28 0 -11 -4
-20 -10 -20 -17 0 -11 30 12 63 20 27 23 29 26 13 2 -11 -3 -23 -12 -28z
m20632 19 c2 -11 -3 -17 -16 -17 -24 0 -32 8 -25 26 7 20 37 13 41 -9z m19272
-57 c0 -11 -6 -20 -13 -20 -7 0 -13 9 -14 20 -1 11 4 20 13 20 8 0 14 -9 14
-20z m-39953 -42 c-3 -8 -6 -5 -6 6 -1 11 2 17 5 13 3 -3 4 -12 1 -19z m37043
-47 c0 -12 -28 -22 -34 -12 -3 5 -3 11 1 15 9 9 33 7 33 -3z m-37070 -71 c-8
-5 -17 -7 -19 -4 -3 3 1 9 9 14 8 5 17 7 19 4 3 -3 -1 -9 -9 -14z m34886 -46
c-7 -19 -22 -18 -30 2 -4 10 1 22 11 30 15 11 19 10 21 -2 2 -8 1 -22 -2 -30z
m-34868 -1 c8 -21 10 -118 3 -118 -1 0 -3 -44 -5 -97 -2 -53 -7 -102 -11 -108
-4 -7 -11 -37 -16 -68 -11 -77 -36 -203 -44 -224 -4 -10 -13 -18 -21 -18 -8 0
-14 -6 -14 -12 0 -7 -6 -4 -12 7 -18 31 -21 190 -4 243 16 52 40 176 52 267 4
33 8 62 9 65 8 26 20 40 32 40 11 0 14 7 11 25 -7 34 7 32 20 -2z m33332 -227
c0 -13 6 -26 13 -29 6 -2 9 -7 6 -11 -11 -11 -36 4 -47 29 -8 18 -8 25 1 29
23 9 27 6 27 -18z m-26116 -51 c2 -16 5 -36 5 -42 1 -7 8 -13 17 -13 11 0 15
-6 11 -20 -3 -11 -1 -20 4 -20 5 0 9 5 9 10 0 19 31 10 39 -12 5 -13 20 -34
33 -48 13 -14 39 -52 58 -85 18 -33 46 -77 62 -97 25 -32 29 -46 32 -120 2
-46 9 -94 15 -107 7 -13 11 -41 9 -62 -2 -21 0 -39 3 -39 22 0 27 -135 8 -172
-6 -10 -5 -19 1 -23 17 -10 12 -45 -5 -39 -8 4 -15 18 -15 32 0 35 -21 93 -43
117 -15 17 -21 18 -38 7 -18 -11 -24 -11 -41 5 -11 10 -27 31 -35 48 -9 16
-19 32 -22 35 -13 9 -48 94 -60 144 -7 27 -19 62 -26 77 -8 15 -20 61 -26 101
-13 90 -20 373 -9 361 5 -4 11 -21 14 -38z m29503 -27 c-3 -8 -6 -5 -6 6 -1
11 2 17 5 13 3 -3 4 -12 1 -19z m-36 -25 c13 -15 12 -15 -8 -4 -24 12 -29 21
-14 21 5 0 15 -7 22 -17z m-1958 -95 c-22 -25 -49 -23 -57 5 -9 36 -7 43 17
54 19 9 25 6 39 -16 16 -23 16 -27 1 -43z m1760 -93 c-3 -9 -8 -14 -10 -11 -3
3 -2 9 2 15 9 16 15 13 8 -4z m42 -5 c3 -5 1 -10 -4 -10 -6 0 -11 5 -11 10 0
6 2 10 4 10 3 0 8 -4 11 -10z m-36606 -165 c0 -5 -4 -3 -9 5 -5 8 -9 22 -9 30
0 16 17 -16 18 -35z m7900 -99 c13 -42 13 -56 -3 -134 -17 -88 -30 -180 -46
-327 -11 -107 -29 -194 -46 -228 -8 -16 -14 -39 -14 -51 0 -12 -13 -43 -29
-68 -16 -25 -32 -55 -36 -68 -4 -13 -21 -45 -37 -73 -16 -27 -27 -56 -24 -63
3 -8 1 -14 -4 -14 -6 0 -10 -7 -10 -15 0 -8 -5 -26 -12 -40 -8 -18 -14 -22
-20 -13 -5 9 -8 5 -8 -11 0 -14 -6 -32 -13 -40 -7 -9 -19 -34 -26 -56 -8 -22
-25 -54 -37 -71 -13 -17 -24 -35 -24 -40 0 -5 -10 -15 -21 -23 -15 -9 -18 -15
-10 -20 9 -6 8 -15 -4 -37 -8 -16 -15 -37 -15 -46 0 -9 -7 -21 -16 -26 -9 -5
-14 -15 -12 -23 3 -8 -3 -31 -13 -51 -11 -21 -19 -44 -19 -52 0 -8 -22 -37
-50 -64 -27 -27 -50 -54 -50 -61 0 -6 -7 -11 -15 -11 -8 0 -15 -4 -15 -8 0
-33 -164 -138 -196 -125 -7 3 -14 -1 -14 -7 0 -9 -6 -7 -19 4 -11 10 -24 15
-30 12 -10 -7 -91 -125 -91 -133 0 -3 -16 -27 -35 -53 -19 -26 -35 -55 -35
-65 0 -18 -49 -93 -74 -114 -16 -14 -22 -51 -8 -51 4 0 9 -20 10 -45 1 -36 -4
-51 -26 -77 -16 -18 -41 -61 -57 -95 -16 -35 -32 -63 -35 -63 -3 0 -20 -14
-39 -30 -19 -17 -36 -29 -37 -27 -6 5 34 107 47 123 6 8 10 16 8 18 -2 2 -38
-34 -79 -81 -41 -46 -85 -96 -98 -110 -13 -14 -28 -37 -33 -50 -5 -13 -13 -22
-18 -18 -5 3 -12 1 -16 -5 -3 -5 -10 -10 -15 -10 -4 0 5 26 21 57 16 31 29 64
29 73 0 8 23 47 50 85 28 39 54 84 59 102 14 51 240 394 381 578 25 33 61 85
80 115 19 30 39 60 45 66 42 44 86 107 120 169 58 107 94 151 146 180 62 33
149 32 149 -2 0 -8 6 -13 13 -10 6 2 10 12 9 23 -8 39 21 139 47 167 15 16 27
42 28 60 1 18 5 68 7 111 3 44 13 102 23 128 12 35 14 54 7 66 -6 9 -9 47 -9
83 2 57 6 71 29 95 14 16 31 47 37 68 6 22 17 49 24 60 8 12 23 57 35 101 21
79 34 121 50 160 26 63 59 154 66 180 10 40 34 77 48 72 6 -2 17 -25 25 -51z
m-7969 -6 c10 -5 21 -21 24 -35 4 -14 13 -25 20 -25 32 0 54 -143 32 -210 -27
-84 -41 -115 -58 -128 -10 -7 -18 -20 -18 -28 0 -8 -4 -14 -9 -14 -13 0 -34
-67 -25 -82 4 -6 9 -23 10 -37 2 -14 11 -61 20 -103 14 -67 24 -86 69 -141 29
-35 60 -77 68 -93 8 -16 47 -60 85 -98 52 -52 76 -70 98 -71 40 -1 100 -33
112 -59 5 -11 27 -41 49 -66 51 -58 98 -128 108 -160 11 -34 37 -69 53 -70 6
0 12 -6 12 -14 0 -18 122 -144 135 -139 6 2 18 -9 27 -24 9 -16 45 -60 80 -99
35 -39 82 -105 105 -145 43 -74 83 -203 83 -264 0 -20 9 -42 25 -59 14 -15 25
-29 25 -30 0 -6 52 -67 85 -101 40 -39 115 -107 248 -225 59 -51 122 -117 140
-145 17 -27 35 -51 39 -53 5 -2 8 -9 8 -16 0 -7 13 -25 28 -42 39 -41 92 -110
92 -120 0 -5 10 -18 23 -29 13 -11 39 -42 57 -70 19 -27 38 -51 43 -53 4 -2 7
-9 7 -15 0 -7 10 -17 23 -23 89 -45 122 -67 164 -107 26 -26 51 -47 55 -47 3
0 24 -24 45 -52 21 -29 55 -70 76 -92 20 -21 37 -42 37 -46 0 -5 16 -27 35
-50 39 -46 45 -98 15 -125 -8 -8 -26 -24 -39 -36 -17 -16 -25 -18 -31 -9 -4 7
-12 10 -18 6 -5 -3 -21 3 -35 14 -14 11 -29 20 -34 20 -4 0 -14 9 -21 20 -7
11 -18 20 -26 20 -7 0 -31 20 -52 45 -22 25 -58 66 -81 91 -22 25 -47 60 -54
77 -7 18 -21 41 -31 51 -10 11 -18 28 -18 37 0 10 -5 21 -10 24 -22 14 4 27
41 21 64 -10 64 25 -1 65 -22 13 -40 32 -40 42 0 9 -6 17 -12 17 -7 1 -26 17
-43 37 -16 20 -45 51 -62 69 -18 18 -33 36 -33 41 0 4 -17 19 -36 33 -108 75
-469 441 -533 541 -16 24 -42 57 -60 73 -17 17 -31 33 -31 36 0 4 -22 31 -50
60 -27 29 -50 58 -50 63 0 6 -17 31 -38 56 -115 138 -169 217 -174 257 -3 25
1 30 30 40 l33 10 -25 37 c-34 49 -87 107 -99 107 -5 0 -55 45 -111 100 -56
55 -124 115 -153 132 -70 45 -138 126 -320 382 -15 22 -43 60 -62 85 -50 66
-91 139 -91 161 0 11 -9 43 -21 72 -12 29 -22 82 -24 118 -2 36 -11 96 -20
134 -19 81 -19 289 -1 369 22 91 41 111 86 87z m35323 -97 c-7 -2 -19 -2 -25
0 -7 3 -2 5 12 5 14 0 19 -2 13 -5z m7 -23 c11 -7 2 -9 -30 -9 -37 1 -41 2
-20 9 34 11 33 11 50 0z m-36440 -67 c0 -8 9 -28 21 -44 12 -17 19 -39 16 -49
-3 -11 -2 -20 2 -20 4 0 5 -20 1 -45 -4 -25 -5 -45 -3 -45 2 0 -3 -12 -11 -27
-21 -41 -58 -72 -93 -79 -26 -5 -33 -2 -43 16 -12 22 -12 22 -51 -16 -21 -22
-38 -43 -39 -47 0 -5 -6 -23 -14 -40 -43 -101 -47 -117 -45 -163 4 -57 -10
-157 -22 -164 -5 -3 -10 -15 -12 -25 -12 -70 -32 -142 -42 -155 -7 -8 -15 -23
-18 -33 -16 -44 -30 10 -29 113 1 76 43 299 62 325 4 6 17 42 29 80 12 39 28
81 35 95 8 14 19 50 26 80 12 52 69 156 114 209 46 53 116 73 116 34z m39164
-272 c3 -4 -6 -6 -19 -3 -14 2 -25 6 -25 8 0 8 39 4 44 -5z m-1248 -51 c25 0
15 -16 -11 -18 -28 -2 -28 -1 -18 24 4 11 8 13 11 6 2 -7 10 -12 18 -12z
m3734 -86 c0 -8 -5 -12 -10 -9 -6 4 -8 11 -5 16 9 14 15 11 15 -7z m-5703 -21
c-21 -3 -27 -9 -23 -20 5 -11 2 -13 -10 -9 -8 3 -18 6 -20 6 -2 0 -4 4 -4 9 0
11 25 19 60 18 22 0 22 -1 -3 -4z m-36272 -541 c-6 -23 -8 -24 -16 -10 -5 10
-7 29 -3 44 6 23 8 24 16 10 6 -10 7 -29 3 -44z m-21575 -112 c0 -5 -11 -10
-25 -10 -14 0 -25 5 -25 10 0 6 11 10 25 10 14 0 25 -4 25 -10z m21576 -26 c4
-20 15 -59 25 -85 10 -28 13 -49 7 -49 -5 0 -8 -18 -6 -42 3 -48 -15 -69 -20
-23 -2 16 -7 32 -12 35 -9 6 -40 106 -40 131 0 26 18 69 29 69 6 0 13 -16 17
-36z m-23416 6 c0 -5 -7 -7 -15 -4 -8 4 -15 8 -15 10 0 2 7 4 15 4 8 0 15 -4
15 -10z m32527 -196 c-7 -41 9 -104 26 -104 7 0 18 5 24 11 9 9 14 5 18 -17 4
-16 18 -71 31 -122 28 -108 40 -258 26 -322 -6 -25 -22 -90 -37 -145 -14 -55
-33 -137 -40 -182 -8 -46 -23 -104 -35 -129 -11 -26 -20 -53 -20 -60 0 -8 -9
-14 -20 -14 -18 0 -20 4 -15 33 4 17 -1 66 -10 107 -9 41 -21 93 -26 115 -4
22 -11 72 -15 110 -4 39 -10 77 -14 85 -13 26 -15 217 -2 340 12 128 31 209
68 288 27 58 50 62 41 6z m-9058 3 c8 -10 7 -14 -4 -14 -8 0 -15 6 -15 14 0 7
2 13 4 13 2 0 9 -6 15 -13z m40201 -32 c-7 -8 -16 -12 -21 -9 -13 8 -1 24 18
24 13 0 13 -3 3 -15z m-40186 -104 c-5 -14 -7 -14 -11 -1 -3 8 -13 24 -22 34
-15 18 -15 19 2 13 9 -4 17 -2 17 3 0 6 -7 10 -15 10 -8 0 -15 5 -15 10 0 6 5
10 10 10 6 0 10 8 11 18 0 9 7 -5 15 -32 9 -26 12 -56 8 -65z m138 -31 c17
-50 19 -132 4 -147 -3 -3 -6 0 -6 9 0 21 -37 53 -42 37 -2 -7 -10 -9 -16 -5
-17 10 -15 53 3 60 9 3 15 11 14 18 -1 7 -1 30 0 51 1 54 22 43 43 -23z
m-11657 -100 c0 -7 -6 -15 -12 -17 -8 -3 -13 4 -13 17 0 13 5 20 13 18 6 -3
12 -11 12 -18z m20045 -190 c-29 -22 -60 -32 -60 -19 0 5 5 9 10 9 6 0 10 7
10 15 0 8 9 15 20 15 11 0 20 5 20 12 0 9 3 9 13 -1 10 -10 7 -16 -13 -31z
m-8312 7 c2 -9 9 -17 17 -17 7 0 25 -23 39 -52 14 -29 40 -65 58 -81 23 -22
32 -39 35 -70 2 -23 7 -51 12 -62 25 -58 28 -74 24 -98 -4 -17 -12 -27 -23
-27 -14 0 -17 -5 -12 -24 8 -26 71 -78 142 -116 25 -14 59 -34 75 -46 17 -12
48 -31 70 -43 22 -12 52 -29 66 -39 15 -9 57 -35 95 -56 38 -22 84 -52 101
-67 18 -15 49 -32 68 -38 43 -12 140 -75 149 -96 3 -8 15 -15 27 -15 12 0 23
-8 26 -20 3 -11 9 -17 14 -14 16 9 82 -17 121 -47 36 -28 103 -67 232 -133 32
-16 67 -43 78 -61 13 -19 49 -44 99 -69 91 -45 183 -124 177 -152 -5 -26 -73
-27 -115 -2 -24 14 -42 17 -67 12 -20 -3 -35 -9 -34 -13 4 -33 -3 -40 -34 -34
-30 5 -137 63 -164 88 -6 5 -34 26 -62 45 -29 19 -55 43 -58 53 -3 9 -10 17
-16 17 -5 0 -8 7 -5 15 4 8 2 17 -3 20 -6 4 -10 15 -10 26 0 11 -10 23 -24 29
-13 5 -27 14 -31 19 -3 6 -14 11 -24 11 -10 0 -28 11 -41 25 -13 14 -27 25
-32 25 -24 0 -158 103 -175 135 -5 8 -20 18 -34 21 -13 3 -40 9 -59 14 -19 5
-64 15 -100 23 -74 17 -123 43 -195 103 -27 23 -55 43 -61 45 -6 2 -50 40 -98
84 -81 74 -129 132 -181 220 -12 18 -28 42 -37 52 -65 73 -177 383 -150 415
18 22 116 18 120 -5z m28542 -492 c11 -20 11 -27 0 -40 -27 -32 -62 -14 -75
38 -7 25 -5 27 27 27 27 0 38 -6 48 -25z m-44626 -171 c9 -3 16 -17 16 -30 0
-19 -5 -24 -24 -24 -28 0 -37 17 -24 43 10 19 10 19 32 11z m24882 -58 c7 -18
-24 -87 -48 -104 -11 -8 -17 -25 -16 -50 1 -32 -11 -68 -55 -161 -18 -36 -125
-140 -152 -147 -16 -4 -25 -15 -29 -39 -4 -18 -18 -49 -31 -69 -14 -20 -25
-43 -25 -51 0 -8 -17 -49 -39 -92 -21 -43 -44 -99 -52 -125 -7 -27 -17 -48
-20 -48 -10 0 -25 -51 -39 -132 -9 -51 -21 -78 -52 -120 -41 -55 -76 -94 -117
-131 -13 -12 -49 -47 -80 -78 -44 -44 -70 -61 -118 -77 -35 -11 -63 -18 -63
-16 0 18 30 51 91 100 39 31 73 63 76 72 3 10 11 31 19 49 8 17 14 36 14 42 0
6 4 11 9 11 7 0 15 28 25 95 5 26 27 65 55 96 17 19 29 39 27 45 -3 7 3 10 15
7 14 -4 18 -1 13 10 -3 8 -1 18 5 22 6 3 11 19 11 36 0 16 5 29 10 29 6 0 10
8 10 18 0 10 3 22 8 26 4 4 7 11 8 14 2 20 32 88 98 223 31 63 56 120 56 127
0 6 9 26 20 44 11 18 20 39 20 45 0 22 114 260 134 279 20 20 70 31 101 23 18
-5 31 -5 33 1 2 6 8 10 14 10 5 0 16 7 24 15 19 19 33 19 40 1z m-22257 -172
c8 -7 -54 -75 -74 -80 -56 -14 -89 48 -42 81 16 11 34 14 67 9 25 -4 47 -8 49
-10z m42361 -44 c0 -5 -2 -10 -4 -10 -3 0 -8 5 -11 10 -3 6 -1 10 4 10 6 0 11
-4 11 -10z m-21485 -67 c-3 -16 -18 -40 -33 -55 -14 -16 -22 -28 -17 -28 4 0
0 -9 -10 -20 -10 -11 -24 -20 -31 -20 -7 0 -14 -4 -16 -8 -5 -12 -131 -88
-158 -95 -33 -8 -70 2 -70 19 0 8 -7 14 -15 14 -22 0 -18 40 7 61 11 11 27 19
33 19 7 0 20 16 29 35 20 42 21 42 81 50 27 3 57 12 66 21 21 19 63 32 108 33
31 1 33 -1 26 -26z m-29835 -263 c0 -5 -4 -10 -10 -10 -5 0 -10 5 -10 10 0 6
5 10 10 10 6 0 10 -4 10 -10z m29166 -155 c-21 -33 -11 -31 43 5 44 30 71 38
71 21 0 -34 -376 -471 -405 -471 -3 0 -22 -11 -42 -25 -30 -20 -40 -22 -57
-12 -21 11 -27 13 -46 16 -7 1 -7 7 -1 20 6 10 8 21 5 24 -3 3 11 31 33 62 21
31 44 67 51 81 7 13 17 24 23 24 5 0 9 5 9 10 0 15 56 69 125 120 69 51 115
95 115 110 0 5 7 10 15 10 8 0 15 3 15 8 0 12 55 42 58 31 2 -5 -3 -21 -12
-34z m-4701 -60 c17 -2 60 -8 98 -13 37 -4 72 -13 78 -19 15 -15 3 -33 -21
-33 -10 0 -22 -5 -25 -11 -4 -5 -21 -8 -38 -5 -18 3 -26 3 -19 0 6 -3 12 -13
12 -23 0 -15 10 -17 73 -17 79 0 170 -9 186 -18 5 -4 35 -8 66 -11 69 -5 92
-12 98 -30 5 -10 -12 -15 -71 -21 -107 -10 -350 6 -376 24 -6 4 -24 9 -40 11
-44 4 -126 44 -126 61 0 13 -2 13 -11 0 -9 -13 -10 -12 -5 3 5 15 2 17 -17 12
-16 -5 -18 -4 -8 4 8 5 37 7 65 5 62 -6 51 8 -19 26 -27 6 -57 14 -65 17 -31
12 -50 13 -50 3 0 -6 7 -13 16 -17 15 -6 15 -8 -2 -20 -19 -14 -56 -17 -67 -6
-4 3 -19 8 -34 9 -14 2 -33 10 -41 18 -23 22 1 47 38 40 15 -4 31 -1 34 5 4 6
15 11 24 11 15 0 15 -2 2 -10 -11 -8 -7 -10 18 -8 17 1 32 8 32 14 0 12 96 11
195 -1z m-351 -10 c-4 -8 -15 -15 -25 -15 -27 0 -24 18 4 23 12 2 23 5 24 6 1
0 0 -6 -3 -14z m38424 -75 c12 0 13 -3 5 -11 -14 -14 -33 -3 -32 19 0 11 3 12
6 5 2 -7 12 -13 21 -13z m-53444 -86 c35 -13 7 -69 -31 -62 -23 4 -26 45 -4
58 20 12 16 11 35 4z m16051 -5 c111 -17 164 -38 253 -97 65 -44 82 -61 82
-80 0 -17 -8 -27 -30 -35 -30 -11 -47 -38 -35 -56 3 -6 12 -8 20 -5 7 3 19 -3
26 -15 10 -15 16 -17 26 -9 10 8 18 6 31 -6 23 -20 32 -20 32 -1 0 14 25 21
60 16 8 -1 105 -4 215 -6 110 -3 220 -9 245 -14 56 -12 40 -11 255 -15 189 -4
243 -13 364 -61 83 -32 125 -90 82 -115 -14 -8 -14 -10 -1 -11 8 -1 18 -1 23
0 4 0 7 -3 7 -9 0 -5 -9 -10 -20 -10 -11 0 -20 -4 -20 -10 0 -5 3 -10 8 -10 4
0 13 -12 19 -27 9 -19 10 -30 2 -40 -9 -10 -8 -13 5 -13 9 0 16 4 16 9 0 5 7
11 14 14 10 4 13 1 10 -8 -3 -7 -12 -16 -20 -19 -8 -3 -14 -12 -14 -20 0 -33
-48 -28 -181 18 -146 51 -184 56 -192 27 -3 -15 -1 -18 11 -14 11 5 13 3 7 -6
-7 -12 46 -71 64 -71 13 0 51 -37 51 -49 0 -7 7 -19 15 -27 8 -9 15 -11 15 -5
0 25 89 -48 125 -102 12 -19 34 -31 77 -43 42 -12 55 -20 46 -26 -9 -7 -5 -8
12 -4 19 4 29 0 38 -14 7 -11 19 -20 27 -20 8 0 15 -4 15 -9 0 -8 20 -17 58
-26 75 -19 235 -147 253 -203 6 -20 30 -75 53 -121 28 -58 37 -86 28 -89 -6
-2 -12 -10 -12 -18 0 -11 -13 -6 -45 16 -25 17 -45 34 -45 38 0 4 -36 33 -80
66 -102 75 -114 93 -100 147 6 23 9 47 6 54 -7 19 -88 61 -131 68 -21 3 -54
17 -74 31 -20 13 -47 27 -60 31 -14 4 -42 20 -64 36 -22 16 -45 29 -51 29 -23
0 -243 211 -256 245 -5 13 -7 40 -5 62 4 46 -29 98 -47 72 -7 -10 -8 -4 -4 21
4 22 19 47 40 66 l33 32 -22 12 c-35 19 -210 17 -232 -2 -14 -12 -50 -16 -173
-17 -150 -2 -210 6 -285 38 -11 5 -46 19 -78 32 -33 12 -61 28 -64 35 -3 9
-20 13 -52 12 -27 -1 -60 5 -80 15 -18 9 -37 14 -42 11 -5 -3 -9 -1 -9 3 0 5
-11 10 -25 11 -30 2 -81 27 -110 52 -11 9 -34 22 -51 28 -37 12 -96 49 -144
90 l-35 30 25 20 25 20 -37 7 c-34 6 -54 27 -44 44 7 11 76 11 151 0z m-16200
-235 c-9 -27 -27 -60 -39 -74 -13 -14 -26 -32 -29 -41 -3 -9 -14 -19 -26 -22
-17 -4 -19 0 -18 27 3 34 23 70 77 134 42 52 57 41 35 -24z m-4508 40 c10 -9
12 -19 6 -25 -12 -12 -48 14 -39 29 9 16 14 15 33 -4z m21553 -28 c0 -17 -14
-29 -23 -20 -8 8 3 34 14 34 5 0 9 -6 9 -14z m-28560 -37 c0 -14 -7 -19 -25
-19 -29 0 -34 24 -8 39 22 12 33 5 33 -20z m8880 -9 c0 -13 -7 -20 -20 -20
-13 0 -20 7 -20 20 0 13 7 20 20 20 13 0 20 -7 20 -20z m-7930 -24 c0 -8 -4
-18 -10 -21 -5 -3 -10 3 -10 14 0 12 5 21 10 21 6 0 10 -6 10 -14z m29989 1
c14 -6 26 -17 28 -23 4 -11 -25 -44 -78 -86 -19 -15 -54 -43 -77 -62 -24 -20
-54 -36 -66 -36 -12 0 -28 -6 -35 -12 -11 -11 -14 -10 -18 1 -4 10 -7 11 -13
1 -6 -9 -11 -7 -19 9 -7 11 -17 21 -24 21 -7 0 -25 7 -40 15 -15 8 -63 22
-107 31 l-80 17 -80 -31 c-45 -18 -89 -32 -98 -32 -30 0 -141 -39 -188 -65
-24 -14 -58 -25 -74 -25 -17 0 -30 -4 -30 -9 0 -5 -29 -12 -65 -16 -36 -3 -80
-14 -97 -23 -51 -25 -183 -40 -240 -27 -27 6 -49 15 -48 20 0 6 -8 11 -20 13
-11 2 -20 7 -20 11 0 5 11 6 24 4 42 -8 169 16 187 36 17 18 257 101 364 126
28 6 82 13 120 14 38 1 83 8 100 15 17 7 52 16 78 20 27 4 67 14 89 22 35 12
255 55 363 70 22 4 42 8 44 10 10 9 98 3 120 -9z m239 -21 c-38 -37 -148 -73
-148 -48 0 15 102 60 138 61 20 1 21 -1 10 -13z m-20048 -65 c0 -12 -20 -25
-27 -18 -7 7 6 27 18 27 5 0 9 -4 9 -9z m284 -48 c-8 -47 -30 -68 -50 -48 -22
21 -17 38 19 63 17 12 33 22 35 22 2 0 0 -17 -4 -37z m-3366 -233 c-14 -22
-24 -19 -15 5 4 8 11 15 17 15 6 0 6 -7 -2 -20z m24696 -19 c3 -4 -3 -16 -13
-25 -16 -15 -18 -15 -18 1 0 10 5 21 11 25 14 10 14 10 20 -1z m-29454 -50 c0
-41 -52 -53 -67 -15 -7 19 12 34 45 34 15 0 22 -6 22 -19z m29340 -2 c0 -5 6
-9 14 -9 8 0 17 -7 20 -16 5 -14 9 -12 26 7 21 26 26 15 10 -25 -12 -32 -97
-88 -170 -111 -69 -22 -255 -111 -296 -142 -17 -13 -36 -23 -42 -23 -7 0 -12
-4 -12 -10 0 -5 -6 -10 -12 -10 -7 0 -35 -21 -63 -46 -68 -62 -145 -120 -173
-128 -12 -4 -22 -12 -22 -18 0 -5 -6 -8 -14 -5 -8 3 -17 -1 -20 -9 -3 -8 -12
-14 -20 -14 -7 0 -16 -6 -19 -14 -3 -7 -26 -24 -52 -36 -25 -12 -52 -31 -58
-41 -7 -11 -16 -19 -22 -19 -5 0 -22 -7 -37 -14 -17 -9 -30 -11 -34 -5 -7 13
81 114 153 175 32 27 63 54 68 60 21 22 116 84 129 84 8 0 21 6 28 13 7 7 36
31 64 52 28 22 85 67 127 100 76 60 168 128 236 175 33 22 69 30 169 36 12 1
22 -2 22 -7z m-25363 -14 c8 -22 -6 -33 -17 -15 -13 20 -12 30 0 30 6 0 13 -7
17 -15z m613 -10 c0 -25 -23 -35 -35 -15 -10 16 2 40 20 40 9 0 15 -9 15 -25z
m-1027 -27 c8 -28 1 -38 -28 -38 -27 0 -36 17 -23 43 12 24 44 21 51 -5z
m-553 -297 c0 -5 -6 -12 -12 -15 -10 -5 -10 -7 0 -12 6 -3 10 -10 6 -15 -3 -5
-12 -2 -20 6 -13 12 -13 17 -2 29 15 17 28 20 28 7z m3900 -315 c-15 -15 -33
4 -19 20 10 12 14 12 20 2 5 -7 4 -17 -1 -22z m21220 -52 c17 -4 21 -65 5 -76
-6 -5 -6 -11 2 -19 12 -12 0 -45 -22 -62 -36 -26 -196 -40 -218 -18 -6 6 -26
11 -45 11 -18 0 -31 4 -28 8 2 4 -4 13 -15 20 -15 10 -19 10 -20 0 0 -7 -4 -3
-9 9 -8 19 -14 21 -47 16 -21 -3 -47 -12 -58 -19 -11 -8 -29 -14 -40 -14 -11
0 -29 -7 -39 -15 -19 -14 -19 -15 -2 -28 17 -12 14 -16 -30 -36 -40 -19 -58
-22 -103 -17 -30 4 -61 12 -69 18 -9 8 -16 9 -20 1 -9 -13 -60 -14 -68 -1 -3
5 -49 9 -102 8 -127 -1 -222 10 -219 24 1 7 -12 10 -33 9 -28 -1 -31 0 -17 9
14 8 16 13 6 24 -6 8 -9 17 -6 20 11 12 243 13 288 2 40 -10 56 -8 115 10 38
12 146 35 239 52 94 17 193 35 220 41 28 5 92 14 144 19 51 5 96 12 99 15 5 5
55 -1 92 -11z m190 -13 c-6 -12 -20 -21 -32 -21 -20 0 -19 2 8 25 32 28 41 26
24 -4z m-28055 -31 c3 -5 -1 -10 -10 -10 -9 0 -13 5 -10 10 3 6 8 10 10 10 2
0 7 -4 10 -10z m-8 -26 c-3 -3 -12 -4 -19 -1 -8 3 -5 6 6 6 11 1 17 -2 13 -5z
m2807 -256 c16 -26 -16 -57 -38 -38 -17 13 -21 42 -9 54 11 11 35 3 47 -16z
m1844 -1074 c14 -25 2 -54 -25 -60 -31 -8 -54 13 -47 43 9 32 57 43 72 17z
m-5928 -280 c0 -8 -4 -12 -10 -9 -5 3 -10 10 -10 16 0 5 5 9 10 9 6 0 10 -7
10 -16z m6154 -110 c22 -9 20 -20 -4 -20 -11 0 -20 6 -20 13 0 15 2 15 24 7z
m47031 -445 c9 -13 6 -16 -28 -24 -17 -5 -27 -3 -27 4 0 6 7 11 15 11 8 0 15
5 15 10 0 13 17 13 25 -1z m2570 -81 c14 -6 25 -17 25 -25 0 -22 -111 -122
-144 -129 -16 -3 -49 -17 -74 -30 -25 -13 -50 -24 -56 -24 -6 0 -47 -18 -91
-39 -101 -49 -202 -62 -244 -32 -14 10 -36 21 -48 25 -12 4 -25 16 -28 27 -4
10 -11 19 -16 19 -17 0 -8 25 21 60 28 31 35 35 88 36 31 1 91 -5 132 -14 41
-8 88 -14 104 -14 30 1 97 37 133 71 12 12 26 21 30 21 4 1 24 14 43 30 37 32
80 39 125 18z m-4228 -262 c38 -19 94 -39 126 -45 76 -14 187 -53 217 -77 13
-10 47 -40 74 -66 27 -27 54 -48 59 -48 5 0 7 -7 3 -15 -3 -8 -2 -14 2 -13 7
2 68 -23 116 -50 59 -31 167 -45 230 -30 57 14 456 20 472 7 8 -7 14 -7 19 1
11 17 50 11 87 -13 29 -20 36 -22 47 -9 11 12 15 12 23 0 7 -10 11 -10 15 0 6
14 33 16 33 2 0 -5 7 -10 16 -10 8 0 12 -5 9 -10 -4 -6 -21 -10 -38 -9 -43 3
-107 -19 -107 -37 0 -8 -5 -14 -11 -14 -5 0 -8 -4 -4 -9 3 -6 -4 -15 -15 -21
-17 -9 -27 -8 -47 5 -17 11 -34 14 -51 10 -41 -11 -285 -16 -292 -6 -3 5 -46
12 -97 15 -51 3 -115 11 -143 17 -28 6 -62 8 -75 5 -14 -4 -33 -2 -42 4 -27
15 -76 33 -98 36 -72 9 -261 46 -275 54 -10 5 -39 17 -66 26 -59 20 -109 51
-156 97 -20 19 -58 49 -84 68 -27 18 -54 40 -61 48 -11 14 -12 14 -13 -1 0
-19 -20 -26 -20 -7 0 14 -41 48 -57 49 -7 0 -13 -6 -13 -14 0 -20 -32 -28 -73
-21 -33 7 -231 -28 -357 -62 -30 -8 -60 -15 -66 -17 -7 -1 -20 -8 -29 -16 -11
-9 -44 -14 -94 -15 -42 -1 -133 -9 -202 -20 -79 -11 -136 -15 -155 -10 -21 6
-24 9 -11 12 9 3 40 20 68 38 32 22 68 37 99 41 35 5 53 13 64 29 18 28 117
64 192 70 113 8 182 21 209 39 29 19 160 25 192 8 10 -5 45 -13 78 -17 33 -4
68 -14 77 -22 9 -8 22 -12 27 -8 16 9 -7 48 -24 41 -14 -5 -28 18 -17 28 3 4
43 5 89 2 69 -4 94 -11 150 -40z m3403 -12 c0 -3 -13 -23 -30 -44 -16 -21 -30
-44 -30 -52 0 -20 -40 -42 -53 -29 -6 6 -26 11 -44 11 -20 0 -33 5 -33 13 0
13 59 57 78 57 7 0 12 4 12 10 0 5 15 16 33 24 34 15 67 20 67 10z m-2340 -93
c0 -6 -5 -13 -11 -16 -6 -4 -8 -14 -5 -22 4 -8 2 -11 -5 -7 -8 4 -9 -4 -4 -27
4 -25 3 -30 -4 -19 -10 13 -15 8 -12 -12 0 -4 -12 -14 -28 -23 -17 -8 -36 -23
-43 -32 -30 -41 -45 -46 -69 -24 -20 18 -21 23 -9 51 7 16 18 30 25 30 7 0 18
7 25 15 7 8 19 15 27 15 8 0 24 11 34 25 13 15 26 22 36 18 11 -4 14 -3 9 5
-4 7 -4 17 -1 22 8 13 35 13 35 1z m2150 -32 c0 -5 -7 -9 -15 -9 -8 0 -15 -8
-15 -18 0 -10 -3 -22 -7 -26 -5 -4 -8 -11 -8 -15 0 -3 -17 -23 -37 -42 -27
-27 -40 -33 -49 -25 -8 8 -10 7 -7 -4 5 -17 -14 -40 -35 -40 -8 0 -17 -7 -21
-15 -3 -8 -11 -15 -18 -15 -7 0 -35 -12 -63 -25 -27 -14 -56 -25 -63 -25 -6 0
-35 -11 -62 -24 -33 -16 -50 -20 -50 -12 0 18 38 50 86 74 22 11 46 27 53 35
6 9 34 20 60 27 47 11 91 40 91 60 0 6 6 10 14 10 7 0 16 9 19 19 3 13 17 22
39 26 22 4 41 17 53 35 18 27 35 31 35 9z m-4876 -144 c4 -16 0 -34 -9 -49
-13 -20 -14 -28 -4 -45 12 -18 8 -25 -34 -65 l-48 -45 -92 1 c-51 0 -105 -4
-120 -11 -50 -20 -104 -87 -205 -255 -22 -37 -106 -142 -138 -175 -14 -14 -38
-46 -52 -71 -27 -47 -104 -152 -138 -187 -10 -11 -36 -39 -56 -61 -21 -23 -42
-42 -48 -42 -5 0 -10 -6 -10 -14 0 -8 -7 -16 -15 -20 -8 -3 -15 -11 -15 -19 0
-7 -23 -37 -52 -67 -43 -46 -52 -52 -56 -36 -9 40 34 144 104 251 50 76 84
113 137 146 26 17 47 35 47 40 0 5 21 31 46 57 26 26 59 66 76 90 16 23 33 42
38 42 6 0 10 9 10 20 0 12 7 20 16 20 9 0 18 9 21 20 3 11 12 20 20 20 8 0 13
6 10 13 -5 14 -40 10 -46 -5 -12 -33 -71 -73 -71 -49 0 14 82 131 92 131 4 0
8 6 8 14 0 7 12 22 27 31 14 10 36 28 48 41 12 13 27 24 32 24 5 0 20 10 33
22 13 12 48 34 79 50 31 15 52 28 48 28 -19 0 154 150 191 166 13 5 45 10 71
12 45 2 49 0 55 -23z m2538 -27 c-9 -9 -15 -9 -24 0 -9 9 -7 12 12 12 19 0 21
-3 12 -12z m1249 -20 c30 -12 58 -25 64 -30 5 -4 17 -8 26 -8 10 0 57 -14 106
-30 48 -17 124 -34 168 -39 44 -5 93 -14 108 -20 34 -13 79 -14 93 -2 5 5 20
12 32 16 22 6 23 5 12 -14 -6 -12 -15 -19 -20 -16 -5 3 -20 -1 -33 -10 -13 -8
-26 -13 -29 -9 -3 3 -30 -8 -59 -25 -32 -18 -70 -31 -94 -31 -52 -2 -138 -21
-145 -31 -8 -12 -159 7 -216 26 -69 23 -133 74 -156 122 -23 48 -18 63 20 63
21 0 28 5 29 22 2 19 18 37 34 38 4 0 31 -10 60 -22z m-494 -34 c-3 -3 -12 -4
-19 -1 -8 3 -5 6 6 6 11 1 17 -2 13 -5z m-1312 -78 c11 -2 28 -5 37 -5 22 -1
34 -46 18 -66 -7 -8 -10 -15 -6 -15 3 0 -9 -15 -27 -33 -37 -39 -92 -55 -187
-56 -86 0 -117 7 -122 27 -3 9 -17 23 -31 30 -15 6 -38 17 -51 23 -16 8 -22
17 -19 27 4 10 2 13 -5 8 -6 -3 -13 -2 -17 4 -8 14 -62 13 -67 -1 -2 -7 -9 -5
-17 5 -12 14 -12 16 3 10 9 -3 16 -1 16 4 0 6 16 14 37 18 20 4 48 13 62 21
21 11 60 13 191 9 91 -2 174 -7 185 -10z m-44288 -37 c49 -27 62 -30 89 -21
50 15 129 7 162 -17 18 -12 45 -21 67 -21 27 0 47 -8 70 -28 24 -21 43 -29 76
-30 40 -2 72 -11 154 -48 17 -7 73 -23 125 -34 52 -11 116 -30 142 -40 26 -11
57 -20 70 -20 22 0 219 -95 323 -156 28 -16 71 -41 98 -54 61 -32 87 -55 121
-107 17 -26 38 -44 54 -48 32 -7 87 -53 77 -63 -4 -4 -34 -5 -67 -3 -43 2 -63
-1 -69 -10 -11 -18 -80 -16 -110 4 -13 9 -49 23 -79 31 -121 32 -164 54 -215
104 -27 27 -62 57 -77 67 -16 9 -28 21 -28 27 0 17 -45 70 -70 83 -14 7 -41
13 -60 13 -19 0 -54 7 -77 15 -30 12 -72 14 -160 12 -65 -3 -156 0 -203 6 -92
11 -263 45 -295 59 -34 14 -116 38 -186 54 -36 8 -84 23 -105 33 -37 18 -39
21 -38 65 0 29 6 52 17 62 9 10 17 23 17 29 0 13 24 37 56 55 31 18 60 14 121
-19z m43753 -34 c0 -8 -9 -15 -19 -15 -10 0 -21 -7 -25 -15 -3 -10 1 -15 11
-15 15 0 16 -2 2 -15 -11 -12 -22 -13 -49 -5 -22 6 -38 6 -44 0 -6 -6 -23 -10
-38 -10 -15 0 -28 -4 -28 -10 0 -5 -5 -10 -10 -10 -6 0 -23 -11 -38 -25 -15
-14 -41 -32 -59 -40 -18 -9 -35 -20 -38 -25 -3 -6 -15 -10 -25 -10 -10 0 -23
-7 -28 -15 -4 -9 -20 -17 -34 -19 -23 -2 -34 -9 -73 -44 -12 -10 -34 -12 -89
-7 -72 7 -75 6 -97 -19 -12 -14 -31 -26 -41 -26 -10 0 -18 -4 -18 -10 0 -5 7
-7 15 -4 21 8 19 -13 -2 -25 -17 -9 -17 -11 1 -24 25 -18 12 -37 -25 -37 -26
0 -29 3 -23 25 9 35 -35 52 -79 30 -38 -19 -36 -19 -29 8 6 22 25 47 36 47 9
0 46 39 46 48 0 9 162 92 180 92 5 0 18 4 28 9 9 5 44 20 77 32 33 13 65 26
70 30 6 4 26 10 45 14 19 4 49 13 65 20 17 7 50 18 75 26 54 15 57 16 71 18 5
0 7 6 3 13 -4 6 -3 8 3 5 5 -3 29 0 54 8 62 19 129 19 129 0z m137 -89 c4 -3
1 -6 -5 -6 -6 0 -9 -7 -5 -16 4 -10 1 -15 -8 -13 -8 1 -35 -1 -61 -5 -54 -9
-108 0 -108 19 0 30 160 49 187 21z m-1037 -302 c0 -10 -6 -14 -15 -11 -8 4
-17 2 -20 -3 -4 -6 -1 -10 6 -10 10 0 10 -3 1 -12 -10 -10 -15 -10 -22 2 -7
11 -3 20 13 32 28 22 37 22 37 2z m-80 -60 c0 -14 -4 -23 -9 -20 -7 5 -8 23
-2 44 4 12 11 -3 11 -24z m-46 -19 c3 -8 14 -15 25 -15 11 0 23 -4 26 -10 3
-5 2 -10 -4 -10 -5 0 -24 -12 -42 -27 -18 -15 -53 -35 -79 -44 -26 -9 -86 -42
-133 -73 -47 -31 -103 -63 -124 -72 -21 -8 -49 -21 -63 -28 -22 -13 -76 -26
-219 -57 -25 -5 -54 -17 -65 -27 -12 -10 -34 -24 -51 -32 -16 -8 -35 -20 -41
-25 -6 -6 -30 -17 -54 -25 -39 -13 -43 -13 -56 5 -15 21 -19 75 -5 75 20 0 61
51 61 75 0 16 -4 24 -11 20 -7 -5 -7 -2 0 11 5 11 12 27 15 37 3 9 15 17 26
17 11 0 20 6 20 13 0 16 58 54 95 62 17 4 37 9 45 13 8 3 24 6 34 7 10 2 67 9
125 16 131 17 126 17 126 -1 0 -8 13 -21 28 -30 26 -14 29 -14 38 3 6 9 19 17
30 17 22 0 99 48 99 61 0 5 11 9 24 9 14 0 28 5 31 10 7 11 62 38 81 39 7 1
14 -6 18 -14z m-40544 -225 c53 -5 109 -16 125 -24 17 -9 38 -16 48 -16 9 0
17 -3 17 -7 0 -5 30 -8 68 -9 39 -1 84 -8 107 -18 22 -10 72 -20 110 -23 66
-5 95 -11 223 -47 63 -17 57 -16 85 -16 13 0 33 -9 45 -20 15 -15 29 -18 51
-14 17 4 37 2 44 -4 6 -6 42 -17 79 -26 95 -22 168 -74 168 -119 0 -14 4 -27
8 -29 5 -1 12 -18 15 -35 5 -27 3 -33 -11 -35 -36 -3 -54 3 -80 27 -15 14 -31
25 -37 25 -5 1 -30 19 -55 40 -37 33 -44 45 -45 76 0 36 -1 37 -50 49 -27 7
-66 15 -85 18 -99 14 -129 20 -170 33 -47 14 -178 33 -267 39 -29 1 -67 5 -85
9 -18 3 -64 8 -103 12 -38 3 -76 9 -83 13 -8 5 -33 4 -54 -1 -23 -5 -45 -5
-52 0 -30 23 -125 53 -150 46 -15 -3 -32 -1 -41 6 -8 6 -19 9 -25 5 -5 -3 -10
-1 -10 4 0 6 -14 11 -31 11 -19 0 -28 4 -23 11 3 6 19 9 34 7 20 -3 27 -1 23
9 -6 16 65 17 207 3z m-1438 -210 c7 -11 18 -20 25 -20 7 0 10 -6 7 -14 -4
-11 0 -13 15 -9 26 7 52 -13 44 -33 -3 -8 1 -14 11 -14 9 0 16 -4 16 -9 0 -5
11 -12 25 -15 29 -7 31 -18 8 -41 -14 -14 -14 -18 -2 -27 10 -6 -7 -8 -53 -4
-66 5 -123 29 -112 47 3 5 9 7 14 4 5 -3 8 8 8 24 -1 17 -7 32 -15 35 -7 3
-13 12 -13 21 0 8 -6 15 -14 15 -22 0 -28 17 -12 33 8 8 12 17 9 21 -4 3 1 6
10 6 9 0 22 -9 29 -20z m40917 -34 c10 -8 12 -26 7 -70 -7 -70 -40 -140 -77
-167 -29 -21 -59 -25 -59 -9 0 6 -7 10 -15 10 -8 0 -15 -8 -15 -17 0 -12 -7
-7 -20 15 -11 18 -18 37 -15 43 10 15 -26 23 -46 11 -10 -7 -25 -12 -32 -12
-8 0 -18 -14 -23 -32 -12 -42 -39 -52 -31 -12 3 16 4 24 1 17 -4 -8 -10 -7
-24 4 -28 24 -13 52 56 101 18 12 34 32 38 45 7 31 44 47 87 38 31 -6 32 -8
14 -18 -27 -16 -14 -26 18 -14 18 7 25 15 21 26 -4 9 -1 15 8 15 8 0 25 11 37
24 23 24 41 25 70 2z m-143 -8 c5 -8 2 -9 -9 -5 -10 3 -17 2 -17 -3 0 -6 -5
-10 -11 -10 -8 0 -8 5 1 15 15 18 26 19 36 3z m-39808 -77 c7 -1 11 -4 8 -9
-2 -4 3 -16 11 -27 15 -20 15 -20 8 3 -4 15 -2 22 7 22 7 0 24 3 38 7 22 6 23
5 12 -10 -8 -9 -19 -15 -25 -13 -7 1 -9 1 -5 -1 10 -6 -2 -36 -20 -50 -10 -8
-19 -9 -27 -3 -7 6 -24 6 -46 0 -27 -8 -49 -6 -106 12 -40 12 -73 26 -73 32 0
5 7 17 15 26 15 16 77 19 203 11z m48542 5 c0 -3 -4 -8 -10 -11 -5 -3 -10 -1
-10 4 0 6 5 11 10 11 6 0 10 -2 10 -4z m-48924 -47 c3 -5 -6 -9 -19 -9 -14 0
-27 6 -30 13 -4 10 2 13 19 9 13 -2 27 -8 30 -13z m37 14 c-7 -2 -19 -2 -25 0
-7 3 -2 5 12 5 14 0 19 -2 13 -5z m-140 -36 c15 -23 14 -24 -14 -24 -16 0 -29
4 -29 9 0 4 5 8 10 8 6 0 10 7 10 15 0 21 5 19 23 -8z m84 -4 c33 -8 17 -23
-23 -23 -28 0 -34 4 -34 21 0 16 4 19 18 14 9 -4 27 -10 39 -12z m497 1 c8
-22 8 -24 -8 -24 -15 0 -28 24 -19 34 11 10 21 7 27 -10z m39157 -36 c13 -23
5 -88 -14 -119 -7 -11 -28 -22 -49 -26 -22 -3 -38 -11 -38 -19 0 -17 -63 -44
-93 -41 -13 1 -25 -6 -32 -19 -6 -12 -16 -28 -22 -35 -6 -8 -17 -50 -23 -94
-7 -44 -21 -98 -31 -121 -11 -22 -19 -52 -19 -67 0 -39 -18 -78 -51 -112 -20
-21 -37 -58 -53 -115 -14 -47 -33 -91 -43 -98 -12 -9 -14 -16 -7 -19 12 -4 3
-30 -27 -85 -5 -10 -9 -23 -9 -29 0 -17 -76 -109 -90 -109 -10 0 1 54 12 61
16 11 21 79 7 105 -8 17 -10 28 -3 32 6 4 34 70 63 147 50 133 78 194 93 205
3 3 10 19 14 35 4 17 15 46 26 65 10 19 18 40 18 47 0 7 9 28 20 48 11 19 17
35 13 35 -3 0 1 8 9 18 9 9 21 40 27 67 9 36 26 65 61 105 27 30 64 72 82 93
18 20 51 48 73 61 44 25 66 21 86 -16z m339 -52 c0 -3 -4 -8 -10 -11 -5 -3
-10 -1 -10 4 0 6 5 11 10 11 6 0 10 -2 10 -4z m-38586 -36 c31 -28 32 -42 9
-62 -48 -40 -150 -58 -212 -37 -27 9 -31 16 -31 45 0 22 6 37 16 41 13 5 13 7
2 14 -9 6 -1 9 22 11 64 3 69 4 74 9 3 3 26 5 50 4 33 0 52 -7 70 -25z m876
-20 c21 -11 41 -24 45 -30 15 -24 -79 0 -125 33 l-24 17 32 0 c18 0 50 -9 72
-20z m37749 -9 c10 -7 11 -13 2 -30 -10 -18 -9 -21 11 -22 21 0 22 -1 3 -8
-24 -10 -47 9 -33 26 7 9 6 15 -6 19 -9 3 -16 10 -16 15 0 11 21 11 39 0z
m-37349 -32 c30 -11 90 -46 134 -77 43 -32 82 -58 87 -58 5 -1 12 -3 17 -4 4
-1 14 -2 23 -1 8 1 24 -8 34 -19 10 -11 26 -20 35 -20 10 0 23 -6 29 -14 15
-18 61 -27 83 -15 12 7 18 4 23 -9 6 -18 55 -58 55 -45 0 5 9 9 20 10 11 1 20
-2 20 -7 0 -5 47 -32 105 -60 57 -28 126 -67 151 -87 26 -19 63 -42 83 -50 19
-8 60 -37 90 -64 60 -53 59 -53 81 -39 10 7 12 12 4 18 -6 4 -15 18 -19 30 -6
21 -5 23 13 13 12 -6 24 -16 27 -21 4 -6 10 -8 15 -5 4 3 10 -2 14 -10 3 -8
15 -15 27 -15 14 0 19 -5 16 -15 -4 -8 -2 -17 3 -20 6 -4 10 2 11 12 0 12 2
14 6 4 4 -11 7 -11 13 0 11 17 40 -6 40 -31 0 -26 24 -67 36 -63 6 2 14 -5 17
-17 3 -11 1 -18 -4 -14 -11 6 -11 -4 1 -31 7 -17 9 -17 9 -2 1 9 6 17 11 17 6
0 8 10 4 24 -3 13 -1 27 5 30 5 4 8 13 4 21 -3 8 0 15 6 15 6 0 11 -7 11 -15
0 -8 4 -15 9 -15 5 0 14 -15 21 -32 7 -18 22 -43 33 -56 13 -14 22 -39 23 -67
3 -42 1 -44 -16 -35 -10 6 -22 15 -25 20 -10 17 -25 11 -25 -10 0 -22 34 -45
52 -34 7 4 8 3 4 -4 -5 -8 1 -11 16 -9 15 1 23 -3 24 -13 0 -8 10 -35 22 -59
12 -25 22 -55 22 -67 0 -13 4 -25 8 -28 5 -3 9 -19 10 -36 1 -25 -2 -29 -16
-21 -9 5 -35 28 -57 51 -22 23 -53 49 -69 57 -36 19 -97 73 -151 133 -67 74
-106 110 -114 105 -5 -2 -17 5 -29 15 -12 11 -25 20 -29 20 -16 1 -59 45 -58
60 1 19 65 15 81 -6 12 -15 44 -20 44 -6 -1 13 -27 42 -39 42 -6 0 -25 9 -40
21 -17 12 -46 21 -70 22 -22 1 -41 5 -41 9 0 8 -48 58 -56 58 -3 0 -13 8 -24
18 -10 9 -66 34 -123 54 -85 30 -106 34 -111 22 -3 -8 0 -13 7 -11 7 1 12 -7
12 -18 0 -23 -13 -26 -130 -23 -44 1 -98 1 -120 0 -66 -2 -185 20 -185 35 0 7
-9 13 -19 13 -10 0 -21 6 -24 14 -3 7 -26 19 -52 27 -37 11 -45 17 -41 32 2
11 2 16 -1 13 -4 -3 -14 1 -23 9 -17 15 -100 48 -107 42 -2 -2 2 -18 8 -34 6
-20 19 -33 35 -37 26 -7 33 -33 9 -33 -8 0 -15 3 -15 6 0 3 -80 7 -178 8 -138
2 -197 8 -267 24 -148 35 -235 68 -235 89 0 6 -5 10 -11 10 -6 0 -25 10 -42
22 -16 12 -46 23 -66 25 -19 2 -40 8 -46 13 -14 12 -7 70 9 71 10 1 99 5 207
7 20 1 60 -7 90 -18 29 -11 64 -20 76 -20 12 0 24 -4 27 -9 3 -5 23 -9 43 -9
38 -1 94 -22 163 -62 43 -25 95 -27 86 -4 -3 9 -6 19 -6 24 0 5 -18 11 -40 15
-22 4 -40 11 -40 16 0 15 33 24 38 11 5 -15 52 -16 52 -1 0 8 15 9 45 5 34 -6
45 -4 45 6 0 15 -88 102 -105 104 -5 0 -12 2 -15 3 -3 1 -20 4 -38 6 -19 1
-42 12 -52 23 -23 25 -13 38 12 15 11 -9 18 -11 18 -5 0 7 5 12 11 12 5 0 7
-4 4 -10 -3 -5 1 -10 10 -10 9 0 19 9 22 20 4 15 9 17 23 10 13 -7 21 -5 30 5
18 22 95 19 160 -6z m37270 -30 c0 8 2 12 5 9 4 -3 3 -18 -1 -33 -4 -18 -9
-23 -14 -15 -5 8 -10 1 -15 -19 -3 -17 -11 -33 -16 -36 -5 -4 -9 -15 -9 -26 0
-28 -29 -69 -49 -69 -9 0 -34 -12 -56 -25 -22 -14 -42 -25 -45 -25 -17 0 -1
54 22 78 64 65 118 130 118 141 0 7 4 10 9 7 5 -3 14 1 21 10 11 12 15 12 21
2 7 -10 9 -10 9 1z m-10 -113 c0 -3 -4 -8 -10 -11 -5 -3 -10 -1 -10 4 0 6 5
11 10 11 6 0 10 -2 10 -4z m-305 -100 c52 1 95 -3 95 -7 0 -5 -4 -9 -10 -9 -5
0 -10 -3 -9 -7 1 -5 -2 -18 -6 -29 -12 -36 -51 -51 -167 -61 -51 -4 -57 -8
-68 -34 -18 -41 -42 -39 -30 3 6 20 6 36 -1 44 -8 9 -5 16 11 24 15 8 19 17
15 31 -11 34 4 58 38 61 18 2 33 -1 35 -7 1 -6 42 -10 97 -9z m12625 -313 c0
-5 -7 -16 -15 -27 -21 -28 -38 -8 -26 32 2 6 41 1 41 -5z m-48645 -52 c3 -5 1
-12 -5 -16 -5 -3 -10 1 -10 9 0 18 6 21 15 7z m6 -47 c30 -11 31 -13 9 -13
-42 -1 -70 10 -70 28 0 26 13 35 20 15 4 -10 22 -23 41 -30z m46607 8 c2 -7
-6 -12 -17 -12 -21 0 -27 11 -14 24 9 9 26 2 31 -12z m-218 -26 c0 -8 -4 -18
-10 -21 -5 -3 -10 3 -10 14 0 12 5 21 10 21 6 0 10 -6 10 -14z m43 7 c-7 -2
-19 -2 -25 0 -7 3 -2 5 12 5 14 0 19 -2 13 -5z m27 -33 c0 -5 -3 -10 -7 -10
-5 0 -18 -3 -30 -6 -13 -4 -23 -2 -23 4 0 10 19 18 48 21 6 0 12 -3 12 -9z
m27 -25 c-4 -8 -11 -15 -17 -15 -6 0 -6 7 2 20 14 22 24 19 15 -5z m-45462
-253 c44 -11 93 -25 108 -31 16 -6 40 -11 54 -11 14 0 46 -7 72 -15 25 -8 71
-21 101 -29 81 -21 163 -52 222 -81 28 -14 56 -24 62 -22 6 2 22 -4 36 -13 14
-9 42 -25 63 -35 30 -14 35 -20 26 -31 -9 -11 -15 -12 -26 -3 -10 9 -18 8 -33
-6 -20 -18 -20 -18 7 -43 26 -24 27 -26 8 -33 -11 -4 -36 -5 -55 -2 -19 2 -49
5 -65 7 -17 1 -35 4 -40 8 -6 3 -32 9 -59 13 -27 3 -56 10 -65 14 -16 8 -55
25 -116 51 -65 27 -77 35 -86 52 -12 23 -4 38 22 38 10 0 19 4 19 9 0 5 10 11
22 13 21 3 21 4 4 21 -10 10 -34 18 -57 18 -48 2 -51 2 -67 12 -7 5 -33 10
-59 13 -26 2 -52 9 -57 14 -6 6 -17 10 -25 10 -9 0 -50 13 -92 30 -41 16 -84
27 -95 24 -21 -6 -60 28 -50 44 6 10 82 -3 221 -36z m-396 11 c12 -14 19 -33
16 -42 -2 -9 2 -29 10 -45 20 -37 19 -46 -4 -46 -24 0 -36 16 -19 24 10 3 8 9
-4 19 -10 8 -18 19 -18 24 0 5 -8 18 -19 27 -10 9 -18 28 -18 41 0 34 29 33
56 -2z m34733 -71 c4 -15 1 -18 -18 -14 -24 4 -30 13 -17 25 12 13 31 7 35
-11z m38 -71 c0 -5 -6 -16 -12 -23 -7 -7 -33 -51 -57 -98 -24 -47 -52 -93 -62
-103 -11 -10 -27 -30 -37 -45 -9 -15 -22 -34 -29 -42 -52 -66 -85 -115 -98
-146 -14 -34 -44 -40 -30 -5 4 9 8 24 10 35 3 10 9 23 14 30 5 6 7 17 2 24 -4
6 -4 41 0 78 5 52 13 74 38 107 18 23 41 60 51 82 22 46 81 105 104 105 9 0
26 -6 37 -12 18 -11 23 -10 33 5 12 18 36 23 36 8z m-34562 -81 c-1 -16 -5
-30 -10 -30 -5 0 -7 4 -3 9 3 6 -5 19 -17 30 l-22 21 26 0 c23 0 27 -4 26 -30z
m-31 -99 c30 -38 44 -49 65 -48 21 0 49 -19 109 -73 56 -51 83 -70 89 -61 9
16 89 -6 97 -26 3 -7 10 -13 15 -13 5 0 32 -22 60 -49 28 -27 62 -52 75 -56
31 -7 53 -28 53 -50 0 -12 -5 -15 -17 -10 -10 4 -29 10 -43 12 -14 3 -35 17
-48 32 l-22 26 -18 -23 c-14 -18 -24 -22 -45 -17 -15 4 -27 11 -27 16 0 5 -5
9 -11 9 -14 0 -36 26 -49 58 -6 13 -18 22 -30 22 -25 0 -76 25 -87 42 -15 24
-54 40 -68 28 -21 -18 -63 -1 -77 31 -7 16 -17 29 -22 29 -4 0 -6 6 -3 14 4
10 0 12 -14 9 -10 -3 -19 0 -19 6 0 6 -13 17 -30 26 -18 9 -30 23 -30 36 0 29
28 79 45 79 8 0 32 -22 52 -49z m83 -21 c0 -5 -2 -10 -4 -10 -3 0 -8 5 -11 10
-3 6 -1 10 4 10 6 0 11 -4 11 -10z m1405 -151 c11 -17 2 -18 -19 -3 -17 12
-17 14 -4 14 9 0 20 -5 23 -11z m45 -30 c0 -5 -4 -9 -10 -9 -5 0 -10 7 -10 16
0 8 5 12 10 9 6 -3 10 -10 10 -16z m50 -41 c14 -13 41 -32 60 -42 41 -23 78
-63 86 -93 7 -25 -11 -63 -30 -63 -7 0 -25 -12 -40 -27 -24 -23 -29 -25 -54
-14 -62 28 -165 114 -168 139 0 4 -5 24 -12 45 -13 47 1 72 31 53 13 -8 20 -8
25 0 19 29 70 30 102 2z m44084 -4 c9 -3 16 -17 16 -29 0 -13 5 -36 11 -52 10
-26 7 -31 -30 -63 -22 -19 -53 -45 -70 -58 -19 -14 -31 -33 -31 -46 0 -13 -5
-38 -11 -57 -20 -60 -96 -213 -116 -234 -11 -11 -28 -34 -39 -50 -35 -55 -89
-107 -126 -122 -33 -13 -38 -19 -38 -48 0 -35 -33 -83 -97 -142 -21 -19 -63
-58 -93 -87 -70 -67 -110 -97 -121 -90 -5 3 -5 13 1 22 5 9 14 38 22 65 7 26
18 47 25 47 10 0 12 10 7 38 -4 28 0 53 17 93 13 30 27 57 32 60 5 4 7 11 3
17 -3 5 1 15 9 22 8 7 17 28 21 49 11 60 31 92 122 200 17 21 32 44 32 50 0 6
4 11 9 11 12 0 57 68 96 144 39 76 81 120 182 190 46 32 85 62 88 67 7 10 55
12 79 3z m-43895 -151 c1 27 28 20 58 -15 16 -17 36 -40 47 -51 17 -18 35 -71
36 -105 0 -10 -14 -11 -62 -6 -35 4 -69 11 -75 16 -7 6 -19 8 -26 5 -8 -3 -21
3 -30 14 -9 10 -23 19 -31 19 -8 0 -17 4 -21 9 -7 12 65 4 80 -9 7 -5 33 -9
58 -8 38 2 47 6 47 20 0 10 -9 26 -20 36 -11 9 -29 25 -40 35 -11 9 -24 17
-30 17 -5 0 -10 10 -9 23 0 21 1 21 9 2 7 -17 9 -17 9 -2z m44220 -8 c5 2 8
-9 7 -25 -1 -17 -2 -30 -3 -30 -7 0 -30 60 -25 65 4 3 8 1 10 -4 2 -6 7 -9 11
-6z m-11927 -187 c-2 -18 -9 -39 -15 -46 -11 -14 -13 -85 -2 -123 5 -18 2 -31
-10 -43 -12 -12 -15 -25 -10 -44 14 -57 20 -128 13 -162 -4 -20 -25 -68 -47
-108 -31 -56 -39 -82 -38 -114 2 -51 -13 -58 -37 -17 -10 16 -28 34 -41 39
-16 6 -27 22 -35 49 -6 22 -17 47 -25 55 -18 18 -20 70 -2 84 7 6 34 17 60 24
26 6 47 16 47 20 0 4 7 8 16 8 13 0 15 7 11 35 -4 25 -2 35 7 35 25 0 37 28
39 90 2 71 -11 92 -45 71 -15 -9 -23 -10 -31 -2 -8 8 -5 11 9 11 14 0 16 3 6
9 -11 7 -11 11 2 24 20 20 20 28 1 21 -8 -4 -15 -1 -15 5 0 24 91 88 109 77 5
-3 11 3 14 14 8 33 24 23 19 -12z m-32082 8 c0 -3 -4 -8 -10 -11 -5 -3 -10 -1
-10 4 0 6 5 11 10 11 6 0 10 -2 10 -4z m32259 -95 c-1 -20 4 -56 11 -81 30
-104 19 -368 -18 -437 -6 -10 -10 -21 -11 -25 -3 -19 -16 -10 -19 12 -2 14 -7
34 -11 45 -33 76 -43 118 -34 138 32 71 41 133 21 139 -10 4 -9 23 5 89 9 46
17 94 17 107 0 27 21 63 33 55 4 -3 7 -21 6 -42z m-31770 -126 c10 5 81 -69
81 -85 0 -5 7 -10 15 -10 8 0 15 -7 15 -15 0 -9 9 -15 25 -15 14 0 25 -4 25
-10 0 -5 10 -10 23 -10 24 0 67 -53 67 -83 0 -15 -5 -15 -45 5 -24 13 -45 29
-45 36 0 6 -7 12 -15 12 -9 0 -18 7 -22 15 -4 11 -16 15 -37 13 -21 -2 -30 1
-28 10 1 6 -5 12 -13 12 -8 0 -15 -4 -15 -10 0 -5 -6 -10 -14 -10 -8 0 -16 -6
-19 -12 -5 -18 -57 10 -57 30 0 8 -7 29 -16 47 -21 44 -15 69 16 73 14 2 29 8
35 13 6 6 11 6 13 -1 2 -5 7 -8 11 -5z m31455 -100 c3 -8 1 -15 -4 -15 -6 0
-10 7 -10 15 0 8 2 15 4 15 2 0 6 -7 10 -15z m-14 -35 c0 -5 -7 -10 -15 -10
-8 0 -15 5 -15 10 0 6 7 10 15 10 8 0 15 -4 15 -10z m-32900 -100 c12 0 67
-118 79 -170 6 -25 11 -66 11 -92 0 -26 4 -49 9 -53 6 -3 13 -26 17 -50 3 -25
10 -48 15 -51 10 -6 12 -84 3 -108 -13 -33 -36 -14 -65 52 -17 37 -37 78 -45
92 -16 27 -33 62 -59 125 -10 22 -30 60 -45 85 -31 51 -55 132 -46 155 4 11
13 14 30 9 14 -3 33 -1 43 5 10 6 24 8 31 6 8 -3 17 -5 22 -5z m-9001 -126
c25 -5 31 -11 31 -33 0 -35 -14 -55 -33 -48 -13 5 -28 -11 -31 -35 -1 -3 -4
-9 -8 -13 -4 -4 -4 -14 -1 -23 5 -12 1 -14 -25 -9 -22 4 -32 3 -33 -6 0 -6 -5
-2 -11 11 -14 29 -39 28 -67 -2 -13 -14 -33 -26 -45 -28 -11 -2 -20 -9 -18
-16 1 -7 -7 -22 -18 -34 -11 -12 -20 -25 -20 -29 0 -9 31 -21 38 -14 3 3 0 5
-6 5 -7 0 -12 5 -12 10 0 16 23 11 48 -10 13 -11 21 -24 17 -30 -5 -8 -11 -7
-21 1 -11 9 -17 9 -29 -1 -8 -7 -25 -10 -40 -6 -19 5 -28 1 -42 -20 -15 -24
-21 -26 -65 -20 -66 9 -78 15 -78 37 0 11 -11 24 -24 30 -14 7 -22 17 -19 25
6 16 -13 19 -22 4 -9 -15 -45 -12 -45 4 0 8 -6 16 -12 19 -7 2 0 8 16 12 17 5
31 4 35 -3 3 -5 18 -8 34 -5 28 6 35 18 15 26 -7 3 0 6 15 6 21 1 30 -5 34
-19 3 -11 9 -20 13 -20 14 0 49 37 42 45 -11 12 20 -6 41 -23 9 -8 20 -12 24
-9 3 4 2 7 -4 7 -6 0 -8 11 -5 25 3 20 9 24 23 20 25 -8 24 0 -3 25 -26 24
-54 26 -62 5 -3 -8 -12 -15 -20 -15 -8 0 -19 -7 -24 -16 -7 -12 -17 -14 -45
-9 -20 4 -37 11 -37 16 0 5 -9 9 -20 9 -20 0 -40 27 -40 54 0 10 6 13 15 10 8
-4 15 -1 15 6 0 9 6 8 18 -3 27 -24 62 -22 62 3 0 11 7 23 15 26 8 4 15 11 15
18 0 15 152 15 165 -1 6 -6 29 -14 52 -18 38 -6 45 -4 68 21 14 15 35 28 45
29 11 1 23 5 27 8 8 9 22 9 62 1z m41867 -186 c9 -17 29 -42 45 -55 37 -31 37
-43 -1 -43 -38 0 -40 -24 -5 -63 14 -15 27 -27 29 -27 2 0 13 9 26 20 25 22
50 26 66 10 15 -15 39 -3 53 26 6 14 17 24 23 22 32 -11 73 -138 49 -152 -6
-4 -11 -14 -11 -23 0 -8 47 -109 104 -224 57 -115 117 -246 132 -291 15 -46
33 -92 40 -102 8 -11 23 -52 34 -90 12 -39 27 -85 34 -101 8 -17 19 -57 26
-90 8 -33 17 -64 21 -70 4 -5 11 -28 15 -49 4 -22 18 -66 30 -98 13 -32 24
-74 24 -93 0 -48 -25 -93 -55 -101 -14 -3 -25 -13 -25 -21 0 -19 57 -101 81
-116 10 -6 19 -15 19 -19 0 -3 34 -41 75 -82 41 -42 93 -104 116 -139 64 -95
108 -138 136 -131 30 8 143 -78 226 -171 33 -36 63 -65 68 -65 4 0 34 -25 66
-56 32 -31 70 -63 86 -72 15 -9 27 -19 27 -23 0 -3 9 -17 21 -30 11 -13 29
-35 41 -48 l20 -24 -27 7 c-15 4 -39 18 -53 32 -15 14 -39 33 -54 42 -16 9
-28 19 -28 23 0 4 -33 27 -73 53 -40 25 -84 59 -97 76 -13 16 -37 37 -53 45
-37 19 -37 19 -37 -1 0 -9 15 -29 33 -45 l32 -29 -26 0 c-15 0 -32 7 -39 15
-7 8 -20 15 -30 15 -10 0 -35 21 -55 46 -21 25 -56 65 -79 88 -23 22 -50 59
-61 81 -26 52 -64 95 -84 95 -32 1 -72 50 -140 175 -19 33 -52 78 -75 100 -23
22 -51 54 -61 72 -10 17 -29 37 -42 44 -13 7 -23 15 -23 19 0 4 -16 27 -35 51
-19 24 -35 49 -35 56 0 7 -8 17 -18 22 -30 16 -47 126 -47 298 0 84 -3 153 -7
153 -5 0 -8 11 -8 25 0 14 -14 56 -31 93 -91 196 -124 252 -149 252 -17 0 -6
-40 32 -120 35 -74 68 -196 68 -249 l-1 -36 -19 23 c-11 13 -25 43 -31 65 -6
23 -19 51 -29 62 -22 24 -90 226 -90 265 0 16 7 30 15 34 8 3 15 11 15 18 0
22 -61 131 -90 163 -15 17 -31 47 -34 69 -4 21 -27 80 -51 130 -24 50 -47 110
-51 134 -4 23 -11 45 -15 48 -5 3 -9 27 -9 54 0 38 4 50 18 53 9 3 18 5 19 6
1 0 10 -13 19 -31z m10910 21 c4 -8 9 -7 15 2 6 11 11 11 21 1 15 -15 45 -16
50 0 4 12 28 3 28 -12 0 -4 -15 -17 -32 -29 -180 -115 -210 -129 -303 -138
-56 -5 -64 -3 -88 19 -15 14 -27 29 -27 32 0 4 17 25 38 45 45 44 125 77 197
80 27 1 51 4 54 7 9 8 40 4 47 -7z m-41841 -69 c3 -5 1 -10 -4 -10 -6 0 -11 5
-11 10 0 6 2 10 4 10 3 0 8 -4 11 -10z m49 -30 c3 -18 14 -34 28 -40 37 -15
52 -32 79 -90 31 -66 37 -131 15 -149 -13 -11 -22 -9 -51 13 -19 15 -35 22
-35 17 0 -6 -5 -11 -12 -11 -6 0 -8 3 -5 6 4 4 -8 14 -26 23 -19 9 -39 31 -50
54 -9 20 -24 37 -32 37 -15 0 -35 57 -35 100 0 21 9 29 53 46 28 12 55 22 58
23 4 0 9 -13 13 -29z m-11201 -67 c3 -5 1 -17 -4 -28 -4 -11 -8 -16 -8 -11 -1
5 -7 4 -13 -2 -9 -6 -19 -4 -32 9 -19 18 -19 19 5 28 30 12 47 13 52 4z m37
-3 c0 -5 -2 -10 -4 -10 -3 0 -8 5 -11 10 -3 6 -1 10 4 10 6 0 11 -4 11 -10z
m9340 -187 c0 -54 -16 -55 -30 -2 -9 31 -8 44 1 55 17 21 29 0 29 -53z m1850
-47 c0 -8 -4 -18 -10 -21 -5 -3 -10 3 -10 14 0 12 5 21 10 21 6 0 10 -6 10
-14z m-1836 -116 c4 -44 -2 -54 -24 -39 -10 6 -11 9 -2 9 6 0 12 5 12 10 0 6
-7 10 -15 10 -8 0 -15 9 -15 20 0 11 5 20 11 20 6 0 9 6 6 14 -3 8 -3 17 1 20
10 10 22 -20 26 -64z m43009 20 c-10 -9 -24 -15 -30 -12 -7 2 -13 -3 -13 -12
0 -9 -4 -16 -10 -16 -13 0 -12 11 4 33 7 9 21 17 30 17 9 0 16 5 16 11 0 5 5
7 11 4 7 -5 4 -13 -8 -25z m-41120 -54 c3 3 12 -7 20 -23 9 -16 35 -47 59 -69
24 -23 42 -46 40 -52 -1 -5 6 -13 17 -17 12 -3 21 -13 21 -21 0 -8 9 -23 20
-34 11 -11 16 -20 10 -20 -5 0 -10 -5 -10 -11 0 -6 6 -9 13 -6 18 6 49 -12 41
-25 -4 -7 -9 -6 -14 2 -6 10 -12 9 -29 -2 -21 -15 -21 -15 -2 -36 l18 -22 28
27 27 28 22 -28 c12 -15 35 -67 50 -115 15 -48 34 -100 41 -117 8 -16 23 -55
35 -85 24 -63 39 -98 51 -122 4 -9 24 -83 44 -165 19 -81 39 -161 44 -178 5
-16 9 -50 10 -74 1 -25 5 -49 8 -54 6 -9 14 -88 13 -126 0 -13 4 -29 9 -35 4
-6 8 -18 8 -26 0 -8 15 -59 33 -114 33 -104 34 -141 4 -184 -8 -12 -21 -22
-27 -21 -35 4 -67 -3 -67 -14 0 -8 -6 -14 -12 -15 -7 0 -23 -4 -35 -7 -19 -6
-23 -3 -23 13 0 11 6 22 13 25 9 3 9 7 -1 19 -18 23 -26 86 -26 218 0 103 2
119 23 152 13 21 27 35 32 32 5 -3 9 2 9 11 0 11 5 15 15 11 18 -7 18 -5 0 64
-13 49 -42 117 -55 130 -3 3 -24 43 -48 90 -23 47 -67 114 -98 150 -49 57 -68
89 -105 175 -18 43 -69 242 -69 272 0 14 -5 21 -13 17 -15 -5 -37 35 -37 67 0
11 -13 44 -30 74 -62 112 -80 149 -80 165 0 10 -6 20 -14 23 -14 5 -27 52 -18
62 3 3 10 0 17 -5 7 -5 14 -7 18 -4z m41087 -36 c0 -5 -7 -10 -16 -10 -13 0
-11 -4 7 -18 13 -10 32 -21 41 -25 17 -6 14 -47 -4 -47 -14 0 -38 -27 -30 -34
3 -4 -4 -9 -16 -13 -12 -3 -22 -12 -22 -19 0 -8 -6 -14 -12 -15 -38 -2 -55
-11 -80 -41 -15 -18 -28 -38 -28 -44 0 -11 -57 -40 -64 -33 -7 6 18 95 30 110
6 8 17 30 23 50 12 37 45 79 62 79 10 0 23 10 58 41 15 14 31 23 49 28 1 1 2
-3 2 -9z m-42969 -28 c-5 -9 -7 -31 -4 -47 3 -21 2 -26 -5 -16 -6 8 -12 9 -16
3 -3 -5 3 -20 13 -33 12 -17 16 -30 10 -44 -12 -31 -10 -39 6 -25 19 15 21 13
30 -23 6 -23 4 -29 -13 -34 -11 -3 -23 -12 -26 -20 -3 -8 -1 -11 4 -8 6 3 10
-2 10 -12 0 -11 5 -24 11 -30 6 -6 8 -25 4 -46 -5 -27 -13 -36 -32 -40 -20 -4
-24 -1 -20 14 3 10 1 19 -5 21 -16 6 -16 176 0 199 10 14 11 24 3 32 -14 17
-6 108 11 118 21 14 29 10 19 -9z m-9234 -254 c15 -7 30 -15 33 -18 9 -9 117
-60 128 -60 20 0 151 -68 183 -94 17 -14 35 -26 40 -26 6 0 55 -29 109 -65 54
-36 102 -65 107 -66 4 0 28 -16 53 -35 25 -18 61 -45 80 -58 41 -28 73 -57 92
-85 9 -12 28 -21 53 -23 34 -3 39 0 45 21 7 32 38 41 78 24 29 -12 37 -23 33
-47 -1 -5 5 -4 13 3 16 13 36 7 36 -10 0 -6 -5 -7 -12 -3 -8 5 -9 2 -5 -9 13
-34 -75 -12 -101 24 -11 16 -16 18 -23 8 -5 -9 2 -22 22 -40 16 -15 32 -39 35
-54 3 -15 18 -46 33 -69 50 -71 171 -219 193 -235 27 -19 100 -92 113 -114 6
-9 35 -49 66 -89 65 -85 126 -233 136 -330 l6 -61 -34 6 c-19 4 -41 15 -49 25
-8 10 -23 21 -32 25 -37 14 -12 -60 45 -134 15 -20 27 -43 27 -51 0 -9 7 -21
15 -28 8 -7 15 -22 15 -34 0 -12 5 -27 11 -33 7 -7 7 -13 1 -17 -6 -3 -21 8
-34 24 -13 17 -37 48 -53 68 -17 20 -37 51 -45 67 -8 17 -21 34 -27 38 -7 4
-13 13 -13 20 0 7 -7 24 -14 39 -17 33 -58 151 -81 233 -16 56 -16 60 1 72 10
7 22 13 27 13 5 0 7 18 4 40 -4 31 -16 50 -55 87 -27 26 -58 67 -68 91 -12 26
-25 42 -36 42 -26 0 -96 51 -160 117 -70 71 -118 106 -223 163 -44 24 -97 54
-117 67 -21 12 -42 23 -48 23 -11 0 -14 1 -115 54 -38 20 -103 53 -144 73 -55
28 -99 61 -175 135 -58 57 -112 101 -128 104 -60 14 -144 155 -111 187 10 11
39 8 70 -5z m51953 -168 c0 -5 -9 -14 -19 -20 -25 -13 -38 5 -14 19 23 13 33
14 33 1z m-42576 -212 c-3 -70 -10 -123 -19 -141 -8 -17 -15 -41 -15 -54 0
-13 -8 -27 -17 -31 -14 -5 -9 -8 17 -12 22 -3 35 -11 35 -20 0 -8 5 -18 10
-22 7 -5 6 -14 -2 -28 -7 -11 -13 -29 -13 -41 0 -20 -2 -21 -17 -7 -10 8 -25
18 -34 21 -14 4 -17 18 -15 72 1 42 -2 70 -10 76 -12 10 -25 65 -29 121 -1 15
-7 34 -14 42 -9 10 -11 29 -6 55 6 38 7 39 46 37 23 -2 39 2 39 9 0 15 21 35
36 35 9 0 11 -28 8 -112z m39695 -46 c-32 -53 -109 -142 -122 -142 -18 0 -59
78 -52 99 6 20 49 36 65 26 6 -4 10 -2 10 3 0 10 64 42 85 42 8 0 15 5 15 11
0 5 5 7 10 4 7 -4 3 -20 -11 -43z m-47737 -24 c14 3 19 1 14 -6 -5 -8 0 -12
13 -12 11 0 23 -5 26 -10 4 -6 11 -8 16 -4 5 3 19 -6 30 -20 21 -27 24 -35 12
-37 -5 -1 -16 -5 -25 -10 -12 -6 -25 -6 -38 1 -11 6 -31 7 -46 4 l-26 -7 31
-13 c44 -18 41 -44 -5 -44 -19 0 -44 5 -55 10 -23 13 -26 40 -4 40 8 0 15 5
15 10 0 6 -5 10 -11 10 -5 0 -7 5 -4 10 4 6 14 9 22 8 9 -2 18 3 20 10 3 6 -2
12 -10 12 -20 0 -26 21 -13 43 6 9 12 13 14 8 2 -5 12 -6 24 -3z m50025 -40
c16 -7 28 -19 26 -25 -3 -7 0 -13 7 -13 6 0 9 -4 6 -8 -6 -10 36 -8 52 2 7 4
16 5 21 1 5 -3 16 2 24 10 9 8 22 15 30 15 8 0 20 7 27 15 15 18 50 20 50 3
-1 -17 -109 -98 -131 -98 -10 0 -21 -5 -24 -11 -4 -6 -14 -8 -23 -4 -9 3 -13
3 -9 -1 4 -4 -3 -12 -14 -18 -12 -6 -21 -15 -21 -21 2 -18 -48 -37 -79 -30
-16 4 -35 2 -42 -3 -7 -6 -25 -8 -41 -5 -27 5 -28 8 -23 49 2 23 1 46 -4 51
-12 12 1 53 17 53 8 0 14 5 14 11 0 8 5 8 15 -1 16 -13 39 -2 58 28 4 6 14 12
21 12 8 0 27 -6 43 -12z m-50207 -66 c0 -4 -11 -9 -25 -10 -14 -1 -25 3 -25 8
0 6 11 10 25 10 14 0 25 -4 25 -8z m49997 -34 c-3 -8 -6 -5 -6 6 -1 11 2 17 5
13 3 -3 4 -12 1 -19z m-49426 -54 c12 -15 11 -16 -11 -9 -35 10 -49 25 -23 25
11 0 27 -7 34 -16z m44 -14 c-3 -5 -10 -10 -16 -10 -5 0 -9 5 -9 10 0 6 7 10
16 10 8 0 12 -4 9 -10z m50 -30 c3 -6 26 -19 51 -30 24 -11 44 -24 44 -28 0
-4 13 -13 29 -20 27 -12 111 -83 111 -94 0 -3 -15 -4 -32 -2 -18 2 -40 5 -48
5 -8 1 -23 -1 -32 -6 -10 -4 -26 -4 -35 1 -10 4 -29 8 -43 9 -48 4 -51 5 -44
16 4 8 9 7 15 -2 4 -7 11 -11 14 -8 3 4 -5 17 -19 30 -13 13 -22 28 -19 33 11
18 8 86 -4 86 -6 0 -15 5 -18 10 -3 6 1 10 9 10 8 0 18 -5 21 -10z m-164 -36
c6 -8 17 -14 24 -14 29 0 58 -37 59 -76 2 -34 5 -39 28 -42 19 -2 27 -10 31
-28 3 -16 -1 -28 -9 -31 -8 -3 -14 -13 -14 -23 0 -17 -2 -18 -40 -3 -22 9 -40
22 -40 30 0 10 -6 12 -22 8 -17 -6 -20 -4 -15 9 4 9 2 16 -3 16 -6 0 -10 6
-10 13 0 8 -6 14 -14 14 -16 0 -84 53 -85 66 -1 5 7 11 17 14 14 3 17 12 14
33 -3 21 0 29 15 32 25 6 50 -2 64 -18z m54679 -4 c0 -10 -6 -20 -12 -23 -23
-7 -48 5 -48 23 0 19 24 30 48 22 6 -2 12 -12 12 -22z m-5100 -19 c13 -26 -11
-51 -51 -51 -32 0 -34 6 -19 44 12 32 54 36 70 7z m-8820 -66 c52 -67 74 -109
67 -128 -5 -14 -10 -15 -34 -5 -47 20 -60 37 -68 86 -3 26 -8 57 -11 70 -6 33
7 26 46 -23z m-33034 -90 c-3 -8 0 -15 6 -17 8 -3 8 -14 -1 -39 -21 -58 -30
-139 -15 -139 8 0 20 14 29 30 9 17 20 30 27 30 17 0 0 -117 -24 -164 -12 -23
-21 -43 -20 -46 0 -3 -5 -12 -12 -20 -17 -21 -14 -105 5 -105 24 0 23 -73 -2
-127 l-23 -49 -77 4 c-76 3 -78 3 -88 -22 -5 -14 -11 -35 -13 -46 -3 -20 -32
-29 -34 -10 0 6 -3 17 -7 25 -3 8 -5 22 -6 30 0 8 -4 33 -10 54 -5 22 -8 43
-6 46 2 3 6 32 9 65 6 58 23 95 58 126 10 9 27 42 38 73 10 31 29 71 42 89 18
25 23 46 24 97 0 36 6 81 12 100 12 34 14 35 53 32 28 -3 39 -8 35 -17z
m38972 -75 c-2 -22 -8 -40 -14 -40 -20 0 -65 -42 -60 -55 2 -7 -11 -26 -30
-43 -19 -17 -34 -37 -34 -46 0 -10 -9 -16 -24 -16 -13 0 -26 -6 -29 -14 -3 -8
-19 -15 -34 -15 -63 -2 -78 -6 -83 -26 -11 -39 -133 -74 -146 -41 -3 9 -10 13
-15 10 -5 -3 -9 2 -9 11 0 11 5 15 15 11 9 -3 15 0 15 9 0 8 3 14 8 13 17 -3
81 33 85 49 3 10 8 31 11 46 5 20 11 27 22 23 22 -8 65 12 71 34 5 20 23 28
23 10 0 -5 7 -10 15 -10 9 0 14 8 12 23 -2 19 11 28 83 64 110 55 121 55 118
3z m-5810 -19 c3 -8 -1 -12 -9 -9 -7 2 -15 10 -17 17 -3 8 1 12 9 9 7 -2 15
-10 17 -17z m8202 -16 c0 -37 -128 -125 -190 -130 -3 0 -19 -10 -37 -23 -17
-12 -38 -22 -46 -22 -26 0 -77 -22 -71 -31 3 -5 0 -9 -7 -9 -7 0 -22 -8 -33
-19 -28 -25 -105 -49 -228 -70 -103 -18 -128 -15 -128 14 0 7 14 26 30 42 17
15 30 35 30 44 0 17 24 42 44 45 6 1 28 5 49 9 22 4 37 3 37 -3 0 -15 103 -23
165 -11 65 12 131 43 148 70 7 11 17 19 23 19 7 0 27 18 45 39 33 38 36 39
102 40 37 1 67 -1 67 -4z m-48266 -57 c22 -6 52 -19 66 -28 32 -22 123 -64
133 -62 4 1 7 -2 7 -7 0 -5 10 -13 23 -17 37 -11 235 -112 293 -149 30 -19 57
-35 60 -35 3 0 24 -13 47 -28 23 -15 74 -43 112 -61 39 -19 84 -46 100 -61 17
-15 41 -31 55 -35 28 -9 103 -58 132 -87 11 -11 52 -40 91 -65 94 -60 157
-111 157 -127 0 -8 7 -19 15 -26 9 -7 15 -22 13 -33 -2 -17 -11 -21 -43 -22
-44 -2 -116 -39 -93 -48 9 -4 7 -6 -4 -6 -10 -1 -18 -5 -18 -10 0 -11 -107 14
-128 31 -23 18 -51 51 -52 61 0 15 -56 91 -95 132 -22 23 -54 57 -71 76 -17
19 -43 43 -58 54 -14 11 -26 26 -26 32 0 15 -52 43 -80 43 -25 0 -58 18 -83
44 -14 16 -33 20 -95 22 -42 1 -111 11 -152 23 -41 12 -93 27 -115 33 -22 6
-49 22 -60 34 -11 12 -45 34 -75 50 -69 36 -67 34 -51 43 10 6 7 13 -11 27
-14 11 -23 25 -20 33 3 8 0 11 -6 8 -13 -9 -36 19 -27 32 3 7 0 8 -9 5 -11 -4
-20 3 -28 23 -7 15 -27 44 -45 63 -17 19 -29 38 -27 42 8 12 121 10 168 -4z
m40183 -85 c55 -60 66 -80 55 -98 -9 -17 -34 0 -134 91 -14 13 -29 24 -33 24
-3 0 -14 7 -22 16 -14 13 -14 17 -2 25 8 5 10 9 6 9 -5 0 -5 4 -2 10 9 15 92
-33 132 -77z m5423 77 c0 -5 -7 -10 -15 -10 -8 0 -15 5 -15 10 0 6 7 10 15 10
8 0 15 -4 15 -10z m1805 -197 c-11 -3 -26 -10 -32 -15 -8 -6 -13 -7 -13 -1 0
16 12 23 39 22 21 -1 22 -2 6 -6z m-128 -25 c11 -19 12 -38 2 -38 -6 0 -24
-13 -42 -30 -18 -16 -35 -30 -39 -30 -4 0 -13 -6 -20 -13 -7 -8 -40 -29 -73
-47 -33 -18 -87 -52 -120 -75 -33 -22 -82 -51 -110 -64 -27 -12 -58 -27 -67
-32 -10 -5 -35 -9 -55 -9 -27 0 -42 -6 -51 -20 -13 -22 -34 -28 -27 -7 3 7 -4
13 -21 13 -19 2 -24 -2 -20 -13 5 -11 1 -14 -13 -10 -15 3 -21 -1 -23 -17 -2
-13 -11 -22 -27 -24 -18 -3 -22 0 -18 12 10 24 -39 20 -76 -6 -19 -14 -32 -18
-34 -11 -3 8 -14 8 -33 3 -16 -4 -32 -5 -36 -2 -4 4 -4 -1 -1 -10 4 -10 2 -18
-4 -18 -6 0 -7 -5 -3 -12 5 -8 2 -9 -10 -5 -10 4 -29 10 -42 13 -13 3 -21 10
-18 15 11 18 -23 9 -41 -11 -18 -20 -65 -28 -65 -10 0 5 6 7 14 4 8 -3 17 -1
21 5 4 7 -3 11 -18 11 -14 0 -27 7 -31 15 -3 8 -13 15 -23 15 -15 0 -16 -2 -3
-10 12 -8 11 -10 -7 -10 -15 0 -23 -6 -23 -17 0 -38 -14 -44 -55 -23 -22 11
-47 20 -56 20 -27 0 -49 11 -43 21 3 6 -6 7 -23 3 -37 -9 -42 -14 -14 -14 13
0 20 -4 15 -11 -3 -6 -17 -8 -33 -4 -43 11 -46 23 -10 34 l34 11 -32 -3 c-20
-2 -33 1 -33 8 0 13 89 54 129 60 96 14 146 26 174 41 97 52 211 106 263 125
33 12 71 30 85 40 29 20 172 79 193 79 8 0 27 7 42 15 22 11 50 13 109 10 44
-3 105 0 135 6 30 6 71 12 90 14 61 6 113 14 118 20 10 10 61 5 69 -7z m123
-68 c12 -8 9 -10 -12 -10 -16 0 -28 5 -28 10 0 13 20 13 40 0z m-2335 -96 c17
-13 18 -16 5 -24 -8 -5 -30 -10 -47 -10 -18 0 -33 -4 -33 -9 0 -12 -39 -21
-46 -10 -3 5 5 9 18 9 18 0 20 2 8 10 -12 8 -12 10 -1 10 8 0 11 3 8 7 -8 7
31 31 53 32 8 0 24 -6 35 -15z m-542 -43 c5 -1 6 -5 3 -10 -7 -10 -56 -2 -56
10 0 5 10 7 23 5 12 -3 26 -5 30 -5z m-3770 -52 c-4 -16 -8 -17 -14 -7 -13 19
-11 28 5 28 9 0 12 -7 9 -21z m-34063 -93 c0 -11 -19 -15 -25 -6 -3 5 1 10 9
10 9 0 16 -2 16 -4z m34180 -31 c0 -13 -4 -14 -20 -5 -11 6 -20 13 -20 15 0 3
9 5 20 5 11 0 20 -7 20 -15z m-34180 -83 c0 -33 -4 -51 -10 -47 -5 3 -10 1
-10 -4 0 -6 -5 -11 -11 -11 -7 0 -8 7 -3 18 4 9 9 40 10 67 2 63 2 63 14 45 5
-8 10 -39 10 -68z m38417 37 c116 1 158 -3 180 -14 15 -8 35 -15 44 -15 27 0
83 -31 105 -59 l22 -26 51 19 c34 12 61 15 83 10 18 -4 28 -9 21 -11 -7 -2
-10 -10 -7 -16 6 -16 -40 -35 -101 -40 -27 -3 -77 -12 -110 -21 -85 -23 -224
-13 -272 20 -19 13 -43 26 -54 29 -10 4 -19 11 -19 16 0 6 -8 9 -18 7 -10 -1
-43 6 -73 16 -53 18 -57 18 -90 2 -19 -9 -63 -28 -99 -42 -36 -14 -84 -34
-108 -44 -23 -11 -51 -20 -62 -20 -11 0 -54 -9 -95 -21 -41 -11 -96 -22 -122
-25 -26 -2 -49 -8 -52 -13 -3 -4 -28 -11 -56 -15 -27 -4 -72 -19 -100 -33 -36
-19 -65 -25 -110 -26 -96 0 -348 31 -356 44 -12 20 18 42 49 35 17 -4 22 -3
14 2 -11 8 -11 10 2 15 9 4 16 2 16 -3 0 -13 36 -13 61 1 14 7 35 7 64 1 35
-7 42 -7 38 4 -3 8 -14 14 -24 14 -33 0 -99 24 -96 35 4 15 88 54 127 59 105
14 164 27 179 40 31 28 76 37 211 42 74 2 151 9 170 14 71 18 178 26 305 22
72 -2 198 -4 282 -3z m1372 -25 c-13 -7 -40 -13 -59 -13 -19 0 -28 3 -20 6 8
2 24 8 35 13 52 22 86 17 44 -6z m-3804 -11 c39 -9 88 -17 110 -18 23 -1 50
-5 60 -8 11 -3 42 -8 68 -12 27 -4 46 -10 42 -13 -4 -4 -10 -7 -13 -8 -40 -5
-63 -18 -60 -37 2 -14 -3 -21 -17 -22 -24 -3 -104 -34 -125 -49 -40 -29 -61
-35 -122 -31 -79 4 -136 14 -163 28 -11 6 -47 12 -80 15 -66 5 -82 13 -87 44
-2 12 -12 22 -23 24 -59 8 -85 16 -85 24 0 6 -18 10 -40 10 -30 0 -38 3 -34
14 11 27 80 44 229 55 129 9 252 3 340 -16z m-43585 -7 c0 -3 -4 -8 -10 -11
-5 -3 -10 -1 -10 4 0 6 5 11 10 11 6 0 10 -2 10 -4z m42076 -37 c68 -71 78
-82 139 -154 33 -39 65 -80 72 -92 11 -19 10 -23 -8 -28 -30 -10 -83 2 -113
26 -27 22 -96 119 -96 136 0 6 -16 28 -35 49 -20 23 -35 50 -35 65 0 53 25 52
76 -2z m4644 31 c0 -13 -23 -28 -36 -23 -25 9 -16 33 11 31 14 -1 25 -5 25 -8z
m460 -4 c0 -9 -30 -14 -35 -6 -4 6 3 10 14 10 12 0 21 -2 21 -4z m-4205 -26
c3 -6 -1 -7 -9 -4 -18 7 -21 14 -7 14 6 0 13 -4 16 -10z m-32911 -22 c9 -33 7
-114 -3 -183 -5 -33 -12 -82 -16 -110 -6 -50 -45 -175 -71 -227 -8 -15 -14
-40 -14 -56 0 -16 -13 -53 -28 -83 -16 -30 -35 -70 -42 -89 -8 -19 -16 -37
-19 -40 -3 -3 -18 -27 -33 -55 -30 -57 -55 -66 -50 -20 1 17 18 80 37 140 73
233 133 431 140 460 4 17 8 37 10 45 2 8 15 50 29 94 14 43 26 94 26 112 0 39
24 47 34 12z m34000 -10 c-7 -10 -43 -9 -69 2 -14 6 -7 8 27 7 25 -1 44 -5 42
-9z m217 -18 c20 -5 48 -20 63 -31 24 -19 25 -22 12 -47 -8 -16 -30 -33 -53
-41 -21 -8 -54 -25 -73 -37 -55 -38 -120 -25 -120 23 0 11 -7 26 -15 33 -8 7
-15 21 -15 31 0 11 7 19 15 19 8 0 15 7 15 15 0 8 7 15 15 15 9 0 15 9 15 21
0 20 4 21 53 16 28 -3 68 -11 88 -17z m2544 7 c27 -20 4 -30 -52 -21 -45 7
-45 7 -22 20 31 17 51 17 74 1z m50 -7 c-3 -5 -10 -10 -16 -10 -5 0 -9 5 -9
10 0 6 7 10 16 10 8 0 12 -4 9 -10z m-2929 -16 c27 -13 32 -19 23 -30 -16 -20
-63 -17 -90 5 l-24 20 25 10 c14 5 27 10 28 10 2 1 19 -6 38 -15z m-43818 -53
c40 -26 112 -117 112 -140 0 -5 4 -11 8 -13 4 -1 18 -19 30 -40 17 -27 27 -35
42 -31 14 4 20 0 20 -11 0 -9 6 -16 13 -16 7 0 22 -10 34 -22 12 -13 32 -32
44 -43 82 -77 119 -120 137 -164 11 -28 17 -53 12 -56 -11 -7 -40 5 -40 16 0
5 -6 9 -13 9 -7 0 -54 38 -104 84 -50 46 -97 88 -104 92 -8 5 -18 16 -24 25
-5 9 -37 49 -70 87 -96 113 -178 252 -149 252 5 0 28 -13 52 -29z m44582 9 c0
-5 -4 -10 -10 -10 -5 0 -10 5 -10 10 0 6 5 10 10 10 6 0 10 -4 10 -10z
m-37110 -46 c0 -17 -22 -14 -28 4 -2 7 3 12 12 12 9 0 16 -7 16 -16z m36232
-29 c29 -14 65 -25 81 -25 40 0 38 -38 -2 -46 -31 -6 -52 -34 -26 -34 8 0 19
-9 24 -19 9 -17 6 -20 -35 -26 -36 -5 -51 -2 -71 12 -87 61 -118 68 -168 38
-11 -7 -46 -13 -79 -13 -32 -1 -64 -6 -71 -12 -9 -8 -14 -7 -17 2 -4 10 -10
10 -29 2 -13 -6 -33 -8 -44 -4 -18 7 -18 9 8 19 15 6 30 18 33 26 4 8 14 15
23 15 9 0 21 10 26 23 8 18 23 24 80 34 39 6 90 16 115 21 71 16 95 14 152
-13z m-36242 -22 c0 -10 3 -28 6 -40 4 -15 2 -23 -6 -23 -7 0 -10 7 -6 15 3 8
1 15 -4 15 -6 0 -10 11 -10 25 0 14 5 25 10 25 6 0 10 -8 10 -17z m-5347 -27
c12 -7 55 -21 95 -31 39 -9 82 -25 95 -35 13 -10 58 -22 112 -30 88 -12 190
-46 250 -82 17 -10 38 -18 49 -18 11 0 16 -5 13 -13 -4 -10 3 -12 25 -9 21 3
29 1 24 -7 -4 -7 0 -11 11 -11 38 0 212 -77 220 -97 3 -7 11 -13 18 -13 20 0
30 -21 14 -30 -12 -8 -84 14 -104 32 -5 4 -17 8 -27 8 -13 0 -18 8 -18 27 0
25 0 26 -20 8 -17 -16 -24 -16 -48 -6 -60 28 -117 43 -149 39 -18 -2 -33 -1
-33 2 0 3 -37 11 -82 18 -46 6 -87 18 -93 25 -28 36 -125 90 -193 107 -28 8
-52 17 -52 22 0 4 -6 8 -14 8 -7 0 -25 11 -39 24 -14 13 -40 27 -56 31 -32 7
-52 24 -29 26 7 0 4 4 -7 9 -18 8 -18 9 -2 9 10 1 28 -5 40 -13z m40280 -84
c19 -8 26 -8 21 -1 -4 7 0 9 12 6 74 -22 111 -28 143 -23 23 4 59 -1 101 -14
73 -22 150 -26 168 -8 6 6 20 13 31 15 17 2 16 -2 -9 -28 -15 -17 -33 -29 -38
-25 -6 3 -14 1 -17 -5 -16 -25 -255 6 -255 33 0 5 -11 8 -25 8 -14 0 -25 -4
-25 -9 0 -21 -42 -18 -69 5 -25 21 -33 23 -55 13 -37 -17 -146 13 -146 40 0
11 134 5 163 -7z m757 -21 c0 -5 -16 -15 -35 -21 -28 -9 -39 -9 -50 0 -8 7
-12 16 -9 21 7 12 94 12 94 0z m-225 -11 c-3 -5 -11 -10 -16 -10 -6 0 -7 5 -4
10 3 6 11 10 16 10 6 0 7 -4 4 -10z m-35379 -104 c6 -25 -30 -171 -48 -193 -5
-7 -7 -16 -4 -21 8 -13 -21 -127 -43 -170 -10 -20 -26 -65 -35 -100 -14 -56
-67 -179 -83 -196 -11 -11 -33 -80 -33 -104 0 -13 -4 -21 -9 -18 -4 3 -6 -5
-3 -19 4 -24 -17 -85 -29 -85 -4 0 -9 -9 -12 -21 -11 -42 -23 -9 -16 43 10 71
63 288 76 313 6 11 14 45 18 75 4 30 13 70 21 88 7 17 11 32 9 32 -3 0 7 21
20 46 14 26 25 53 25 60 0 8 9 19 20 26 11 7 20 21 20 30 0 10 6 18 13 19 9 0
9 2 0 5 -12 5 -6 34 8 44 4 3 10 23 13 45 6 57 38 124 58 125 4 0 10 -11 14
-24z m-4839 -62 c-3 -3 -12 -4 -19 -1 -8 3 -5 6 6 6 11 1 17 -2 13 -5z m516
-110 c46 -16 77 -47 58 -58 -5 -4 -22 -1 -38 6 -15 6 -30 12 -33 13 -3 1 -12
5 -20 8 -8 4 -27 11 -42 16 -17 7 -26 17 -25 29 1 21 -1 21 100 -14z m-128 16
c3 -5 -1 -10 -9 -10 -9 0 -16 5 -16 10 0 6 4 10 9 10 6 0 13 -4 16 -10z m453
-197 c24 -20 49 -48 56 -62 21 -47 65 -110 86 -121 22 -12 27 -40 8 -40 -9 0
-8 -4 2 -10 9 -6 10 -10 3 -10 -17 0 -122 64 -163 99 -20 18 -37 26 -41 20 -7
-12 -68 26 -93 59 -16 21 -16 22 8 32 13 5 35 23 47 39 13 17 27 31 32 31 6 0
30 -16 55 -37z m182 -143 c0 -5 -5 -10 -11 -10 -5 0 -7 5 -4 10 3 6 8 10 11
10 2 0 4 -4 4 -10z m5837 -78 c28 -37 1 -87 -64 -121 -29 -15 -78 -14 -91 2
-26 31 20 117 62 117 8 0 17 7 20 16 8 20 53 11 73 -14z m-5277 -81 c25 -5 77
-12 115 -15 81 -7 165 -26 165 -38 0 -4 9 -8 20 -8 13 0 24 -10 30 -26 12 -30
4 -48 -16 -40 -8 3 -14 1 -14 -4 0 -24 -98 10 -120 42 -3 4 -71 10 -150 13
-111 4 -148 9 -161 21 -10 9 -23 13 -28 9 -6 -3 -16 -3 -23 1 -7 4 -24 9 -38
11 -15 1 -40 9 -55 17 -29 15 -29 15 -6 24 28 10 221 5 281 -7z m367 -87 c3
-8 0 -21 -6 -27 -9 -9 -11 -8 -5 7 4 11 2 21 -7 27 -10 6 -11 9 -1 9 7 0 15
-7 19 -16z m-3816 -31 c49 -52 69 -83 69 -110 0 -13 3 -23 8 -23 9 0 46 -62
44 -72 -1 -5 3 -8 8 -8 13 0 13 -71 1 -103 -6 -14 -23 -29 -40 -35 -28 -10
-30 -14 -25 -44 3 -18 15 -45 25 -60 10 -15 19 -32 19 -37 0 -12 23 -42 60
-78 14 -13 62 -42 107 -64 102 -51 223 -166 333 -315 19 -26 46 -59 60 -73 14
-14 50 -63 79 -108 36 -54 61 -83 78 -87 13 -4 45 -27 70 -51 25 -25 50 -45
54 -45 5 0 9 -6 9 -14 0 -7 29 -44 65 -81 36 -38 65 -74 65 -82 0 -7 4 -13 9
-13 5 0 8 -12 7 -26 -1 -23 -4 -25 -35 -19 -35 7 -77 46 -87 81 -3 12 -16 24
-29 26 -16 4 -22 1 -18 -9 9 -23 -39 -15 -82 14 -22 14 -42 29 -45 33 -3 4
-35 17 -72 30 -38 13 -68 27 -68 32 0 4 -5 8 -11 8 -6 0 -16 6 -23 13 -8 6
-35 30 -61 52 -49 41 -162 170 -206 236 -24 36 -110 153 -129 176 -26 31 -70
109 -70 122 0 9 -6 28 -14 43 -27 52 -51 92 -64 107 -46 54 -127 229 -135 291
-3 19 -9 60 -15 90 -6 30 -13 89 -17 131 -5 63 -3 80 10 93 23 22 26 21 66
-21z m3984 27 c3 -5 -1 -10 -10 -10 -9 0 -13 5 -10 10 3 6 8 10 10 10 2 0 7
-4 10 -10z m72 -7 c5 -15 -40 -24 -49 -10 -4 7 -8 15 -8 19 0 11 54 2 57 -9z
m4243 -27 c0 -18 -81 -92 -111 -101 -13 -4 -35 -16 -47 -26 -25 -20 -88 -23
-109 -6 -9 7 -13 5 -13 -6 0 -23 -44 -70 -67 -72 -11 0 -31 -8 -44 -16 -39
-25 -186 -52 -195 -37 -7 12 36 59 47 52 5 -3 19 2 31 10 13 8 42 19 65 26 24
6 47 19 53 30 6 11 21 20 33 20 12 0 46 11 76 25 29 14 70 28 90 31 20 3 68
23 106 45 78 43 85 45 85 25z m-3740 -96 c28 -11 62 -20 75 -20 14 0 25 -4 25
-10 0 -5 7 -10 15 -10 8 0 15 -9 15 -19 0 -14 11 -22 43 -30 86 -21 143 -40
197 -65 30 -14 49 -26 43 -26 -7 0 -13 -9 -13 -20 0 -18 -5 -19 -63 -15 -35 3
-110 18 -168 34 -57 16 -122 32 -144 36 -53 9 -153 54 -160 72 -7 20 4 36 20
29 21 -8 26 6 7 20 -16 13 -16 13 1 14 10 0 20 7 23 15 8 20 23 19 84 -5z
m1040 -152 c0 -5 -7 -8 -15 -4 -8 3 -15 1 -15 -4 0 -6 -5 -10 -12 -10 -6 0 -3
8 7 20 17 19 35 19 35 -2z m65 12 c16 -7 17 -9 3 -9 -9 -1 -23 -8 -32 -16 -17
-17 -29 -5 -20 19 7 18 19 19 49 6z m439 -21 c-3 -5 0 -9 5 -9 6 0 11 4 11 8
0 5 18 8 39 6 51 -3 91 -36 75 -62 -12 -18 -60 -19 -78 -1 -6 5 -18 9 -28 9
-10 0 -18 7 -18 15 0 8 -8 15 -19 15 -12 0 -18 -7 -17 -17 0 -10 -6 -18 -14
-18 -8 0 -24 -8 -35 -18 -23 -20 -34 -23 -130 -33 -92 -9 -119 -9 -133 0 -7 4
-16 4 -22 1 -5 -3 -10 3 -10 14 0 18 -6 21 -40 21 -46 0 -52 14 -12 28 18 7
21 11 9 11 -10 1 -17 7 -14 14 5 14 150 12 155 -2 4 -11 72 -2 89 11 7 6 25 6
47 -1 29 -7 36 -7 36 4 0 9 15 15 43 17 49 4 69 -1 61 -13z m-614 7 c0 -2 -7
-6 -15 -10 -8 -3 -15 -1 -15 4 0 6 7 10 15 10 8 0 15 -2 15 -4z m-145 -36 c-3
-5 -1 -10 4 -10 6 0 11 4 11 9 0 5 21 8 47 7 40 -1 48 -4 50 -21 1 -13 0 -14
-3 -4 -6 21 -57 18 -82 -4 -14 -13 -30 -15 -70 -11 -32 3 -51 2 -50 -4 2 -6 0
-10 -4 -11 -5 -1 -8 1 -8 4 0 3 0 12 0 20 0 9 9 15 23 15 12 0 29 5 37 10 20
13 53 13 45 0z m165 -6 c0 -13 6 -15 27 -9 15 3 31 12 36 18 5 9 12 6 23 -8
11 -14 18 -16 21 -7 8 20 25 13 21 -9 -4 -32 -47 -59 -80 -52 -16 3 -28 12
-28 19 0 8 -9 19 -20 26 -21 13 -27 38 -10 38 6 0 10 -7 10 -16z m2140 3 c0
-14 -67 -37 -110 -37 -65 0 -21 27 70 43 14 2 28 5 33 6 4 0 7 -5 7 -12z m30
-1 c0 -3 -4 -8 -10 -11 -5 -3 -10 -1 -10 4 0 6 5 11 10 11 6 0 10 -2 10 -4z
m-2453 -22 c-3 -3 -12 -4 -19 -1 -8 3 -5 6 6 6 11 1 17 -2 13 -5z m1583 -86
c0 -5 8 -8 17 -6 10 2 19 -4 21 -14 4 -19 -14 -23 -64 -12 -20 4 -34 16 -45
40 -16 32 -16 34 2 34 11 0 19 6 19 13 0 6 11 -1 25 -17 14 -16 25 -33 25 -38z
m-786 -114 c4 -9 1 -32 -6 -50 -10 -29 -9 -36 7 -54 26 -29 48 -25 116 20 32
21 67 40 76 42 26 5 26 -18 0 -44 -53 -52 -97 -88 -107 -88 -5 0 -10 -4 -10
-8 0 -5 -26 -26 -57 -48 -62 -42 -133 -110 -133 -126 0 -16 -89 -95 -160 -142
-36 -24 -71 -51 -79 -60 -7 -9 -17 -16 -22 -16 -15 0 -133 -74 -168 -106 -39
-34 -67 -44 -99 -32 -42 15 -122 -13 -249 -88 -24 -13 -43 -22 -43 -19 0 3 -6
1 -12 -5 -7 -5 -40 -30 -74 -54 -33 -23 -95 -84 -138 -135 -44 -50 -97 -105
-119 -121 -22 -16 -69 -57 -104 -90 -34 -33 -75 -66 -90 -73 -15 -6 -35 -19
-44 -27 -38 -36 -60 -50 -77 -50 -10 0 -23 -5 -28 -10 -12 -12 -44 -3 -44 12
0 5 5 6 10 3 6 -3 10 -3 10 2 0 11 184 198 214 218 13 9 37 35 52 58 44 63 65
86 104 110 19 11 37 24 40 27 3 4 13 9 23 13 9 3 17 13 17 22 0 8 7 15 17 15
9 0 14 3 10 6 -3 3 6 17 21 29 15 13 34 36 42 52 18 34 69 84 170 166 84 69
196 174 345 323 56 56 116 109 135 119 19 10 66 37 103 61 37 24 73 44 81 44
7 0 23 11 35 24 38 41 146 88 217 95 7 0 15 -6 18 -15z m-4839 -1066 c18 -8
25 -19 25 -39 0 -15 6 -29 13 -32 8 -3 7 -7 -5 -12 -10 -4 -31 -1 -47 6 -37
16 -48 49 -20 56 15 4 17 8 8 19 -14 17 -8 18 26 2z m152 -178 c2 -21 -2 -28
-12 -24 -7 3 -18 -4 -25 -15 -14 -26 -30 -27 -30 -2 0 23 -16 37 -22 19 -3 -8
-6 -9 -11 -1 -4 6 11 18 33 28 22 10 40 22 40 26 0 5 6 6 13 4 6 -3 13 -18 14
-35z m3024 -158 c-7 -2 -18 1 -23 6 -8 8 -4 9 13 5 13 -4 18 -8 10 -11z m-355
-86 c19 -20 9 -40 -31 -59 -21 -10 -35 -24 -37 -39 -4 -27 -49 -52 -78 -43
-11 3 -19 9 -18 13 1 4 -4 20 -10 35 -15 36 1 75 38 94 34 17 118 17 136 -1z
m-2471 -47 c-4 -5 -16 -8 -28 -8 -17 1 -18 2 -4 6 9 2 17 9 17 14 0 6 5 7 10
4 6 -4 8 -11 5 -16z m62 -41 c-3 -8 -6 -5 -6 6 -1 11 2 17 5 13 3 -3 4 -12 1
-19z m33 7 c0 -18 16 -20 23 -2 4 9 8 9 14 1 4 -6 19 -15 33 -19 25 -7 161
-69 190 -87 8 -4 30 -15 49 -24 36 -17 66 -42 59 -50 -3 -2 -36 3 -74 11 -38
9 -102 20 -143 25 -59 8 -80 15 -105 37 -17 15 -32 31 -34 36 -2 4 -12 7 -23
7 -14 0 -18 6 -15 23 3 12 5 30 5 40 1 21 21 23 21 2z m850 -159 c0 -14 -33
-25 -90 -32 -33 -4 -70 6 -70 18 0 5 9 6 20 3 12 -4 26 -2 33 3 11 9 43 16 90
21 9 0 17 -5 17 -13z m-406 -37 c-8 -14 -34 -10 -34 5 0 9 7 12 20 9 11 -3 17
-9 14 -14z"/>
<path d="M28706 38095 c-3 -8 -1 -15 4 -15 6 0 10 7 10 15 0 8 -2 15 -4 15 -2
0 -6 -7 -10 -15z"/>
<path d="M28092 37283 c-47 -9 -182 -100 -182 -123 0 -4 26 -8 58 -9 52 -1 62
2 89 26 42 39 87 116 66 112 -5 -1 -19 -4 -31 -6z"/>
<path d="M27802 37082 c-40 -42 -64 -73 -59 -78 2 -2 18 3 35 12 20 10 32 23
32 36 0 14 5 18 15 14 11 -4 15 1 15 19 0 32 -5 31 -38 -3z"/>
<path d="M33645 38191 c-11 -5 -23 -7 -26 -5 -10 6 3 -46 13 -52 12 -8 48 30
48 51 0 17 -5 17 -35 6z"/>
<path d="M33756 38008 c3 -4 9 -8 15 -8 5 0 9 4 9 8 0 5 -7 9 -15 9 -8 0 -12
-4 -9 -9z"/>
<path d="M33670 37986 c0 -8 -3 -21 -6 -30 -3 -9 -2 -16 4 -16 5 0 12 14 14
30 3 17 1 30 -4 30 -4 0 -8 -6 -8 -14z"/>
<path d="M24310 29926 c0 -8 15 -50 33 -93 34 -78 48 -127 67 -238 5 -33 26
-109 45 -168 19 -59 35 -115 35 -123 0 -27 66 -158 117 -235 28 -41 69 -110
91 -154 40 -79 133 -200 153 -200 6 0 22 37 35 83 13 46 33 101 44 122 40 79
18 200 -90 490 -33 90 -141 289 -168 312 -10 8 -48 33 -87 56 -38 23 -112 69
-163 102 -98 63 -112 69 -112 46z"/>
<path d="M25037 27622 c-4 -15 -12 -99 -18 -187 l-12 -160 26 -58 c15 -32 27
-60 27 -62 0 -15 61 -133 74 -144 13 -11 20 -11 42 4 26 17 26 18 19 103 -11
134 -33 233 -60 272 -35 50 -51 95 -65 177 -13 79 -24 98 -33 55z"/>
<path d="M24875 26338 c-61 -49 -193 -128 -285 -171 -52 -24 -108 -57 -124
-73 -16 -16 -48 -71 -72 -122 -24 -52 -65 -126 -91 -165 -58 -87 -357 -398
-455 -474 -40 -31 -95 -76 -123 -100 -27 -23 -65 -48 -85 -54 -42 -14 -184
-71 -256 -104 -27 -13 -103 -40 -167 -60 -64 -21 -117 -41 -117 -44 0 -9 272
-2 380 10 52 6 122 17 154 24 33 8 78 12 100 9 23 -3 81 2 130 10 115 21 177
20 215 -1 50 -29 49 -30 206 227 140 230 171 273 272 372 54 54 106 104 116
111 11 7 23 31 28 53 35 163 87 307 166 467 24 49 43 93 41 99 -2 6 -17 -1
-33 -14z"/>
<path d="M21166 25215 c-9 -25 53 -132 111 -189 72 -73 90 -77 150 -34 25 18
48 38 50 44 2 6 -34 36 -79 67 -46 31 -93 65 -105 77 -13 11 -23 18 -23 16 0
-3 -22 3 -49 14 -41 16 -50 17 -55 5z"/>
<path d="M22636 24978 c-124 -13 -404 -64 -448 -83 -21 -9 -22 -14 -3 -39 21
-27 180 -42 224 -20 37 19 106 30 288 49 154 16 266 40 283 60 8 10 -13 16
-94 29 -114 17 -119 18 -250 4z"/>
<path d="M43236 35228 c-14 -25 -26 -48 -26 -53 0 -22 -228 -458 -264 -505
-66 -85 -125 -176 -158 -242 -23 -47 -65 -96 -187 -217 -86 -86 -186 -177
-223 -203 -56 -39 -68 -52 -68 -75 0 -28 -34 -172 -65 -273 -24 -78 -73 -188
-105 -235 -31 -46 -131 -208 -168 -275 -107 -191 -249 -363 -447 -545 -42 -38
-92 -95 -110 -126 -40 -69 -78 -185 -100 -304 -30 -172 -29 -168 -120 -460
-103 -331 -137 -411 -213 -500 -61 -72 -131 -190 -143 -244 -6 -26 -4 -73 6
-143 8 -57 15 -167 15 -246 l0 -143 40 -57 c46 -67 70 -166 70 -291 0 -78 2
-84 52 -178 28 -54 72 -138 96 -188 24 -49 73 -131 108 -182 35 -51 87 -139
116 -195 50 -101 131 -232 149 -243 5 -4 58 -15 118 -25 183 -31 287 -70 359
-134 20 -18 58 -47 85 -65 26 -18 84 -71 130 -118 45 -48 155 -158 244 -245
182 -179 259 -283 331 -449 23 -53 42 -99 42 -102 0 -4 11 -30 24 -59 41 -90
65 -170 76 -258 6 -47 15 -110 19 -140 6 -48 48 -188 73 -245 5 -11 30 -34 56
-52 26 -17 86 -58 133 -90 47 -32 107 -69 133 -82 35 -19 62 -45 106 -105 51
-71 67 -86 132 -120 40 -21 97 -57 127 -80 152 -117 315 -230 386 -267 44 -23
94 -52 110 -65 17 -13 62 -31 100 -39 38 -9 84 -23 102 -30 64 -27 32 22 -78
120 -77 69 -146 116 -220 149 -30 14 -67 34 -84 45 -16 12 -38 21 -48 21 -28
0 -143 116 -169 169 -12 25 -51 75 -86 111 -48 49 -75 88 -107 155 -40 84
-128 305 -154 385 -52 164 -83 268 -102 344 -21 86 -22 97 -11 240 21 263 19
270 -83 426 -62 94 -161 297 -202 414 -19 55 -44 117 -54 138 -60 117 -126
297 -176 478 l-57 205 0 260 c0 274 10 378 45 473 11 31 27 85 36 120 15 60
14 67 -7 150 -101 402 -118 489 -125 662 -7 187 -30 388 -51 452 -32 99 -18
420 24 528 13 36 28 81 32 100 4 19 19 79 34 133 44 167 44 471 0 632 -11 42
-16 101 -16 197 0 160 8 239 32 322 28 94 114 324 153 407 19 41 44 104 55
140 33 108 84 204 196 373 59 88 112 178 118 200 14 46 12 365 -2 379 -4 5
-20 -11 -34 -35z"/>
<path d="M48626 33084 c-3 -9 -6 -41 -6 -73 0 -82 -13 -180 -66 -511 -8 -52
-27 -142 -40 -200 -14 -58 -32 -133 -39 -167 -8 -34 -25 -99 -40 -145 -27 -85
-55 -278 -55 -381 0 -36 9 -87 24 -130 13 -40 29 -96 35 -125 6 -29 22 -74 35
-100 29 -58 42 -130 62 -348 27 -300 27 -319 5 -503 -21 -169 -23 -178 -70
-275 -27 -56 -59 -128 -71 -161 -12 -33 -27 -67 -34 -75 -31 -36 -46 -90 -62
-222 -15 -120 -16 -157 -6 -247 22 -196 16 -248 -62 -541 -75 -282 -145 -509
-219 -709 -23 -60 -68 -130 -231 -356 -127 -176 -255 -318 -317 -351 -26 -15
-58 -41 -71 -58 -23 -32 -134 -138 -174 -166 -11 -8 -34 -42 -51 -75 -86 -166
-153 -314 -159 -345 -3 -19 -17 -66 -31 -105 -35 -93 -56 -124 -173 -250 -100
-106 -125 -129 -184 -169 -28 -18 -84 -55 -124 -82 -188 -125 -266 -149 -538
-166 -164 -10 -174 -10 -235 11 -89 30 -119 28 -174 -15 -50 -38 -255 -144
-278 -144 -8 0 -20 -7 -27 -15 -10 -12 -9 -16 6 -22 25 -10 95 -8 169 5 69 13
121 4 240 -38 44 -16 98 -33 120 -39 22 -5 72 -18 110 -29 65 -19 155 -39 280
-62 56 -10 147 -21 215 -25 25 -2 68 -6 95 -10 37 -5 72 -2 130 13 73 19 399
44 539 42 52 -1 84 23 190 148 98 114 228 224 350 296 44 26 93 58 110 72 17
14 66 49 109 77 43 29 175 118 295 198 145 98 238 153 282 169 73 25 187 88
211 117 9 10 39 62 67 115 28 53 67 118 86 145 19 26 51 80 72 118 20 39 67
115 104 170 36 55 79 123 95 150 15 28 47 79 70 115 23 36 57 94 76 130 18 36
55 99 80 140 25 41 59 100 74 130 41 82 69 114 148 173 59 44 81 68 119 133
81 138 82 138 84 334 0 96 7 266 14 378 9 158 9 268 0 489 -12 297 -10 325 20
433 29 102 34 146 31 287 -2 146 -17 206 -71 294 -16 27 -30 53 -30 58 0 5
-21 37 -47 72 -26 35 -69 107 -96 159 -26 52 -64 118 -84 148 -52 80 -119 219
-153 319 -16 48 -45 133 -65 188 -46 127 -70 214 -95 340 -43 214 -47 232 -97
400 -28 94 -32 120 -34 205 -1 46 -6 100 -11 120 -19 70 -70 160 -112 197 -23
21 -59 66 -80 101 -21 34 -53 75 -72 90 -19 15 -60 60 -90 100 -57 75 -68 83
-78 56z"/>
<path d="M34081 33054 c0 -11 3 -14 6 -6 3 7 2 16 -1 19 -3 4 -6 -2 -5 -13z"/>
<path d="M33726 32673 c-3 -10 -6 -22 -7 -28 -1 -5 -10 -22 -20 -37 -24 -33
-25 -55 -1 -32 19 19 54 114 41 114 -4 0 -10 -8 -13 -17z"/>
<path d="M34231 32404 c0 -11 3 -14 6 -6 3 7 2 16 -1 19 -3 4 -6 -2 -5 -13z"/>
<path d="M34216 32325 c-3 -9 -6 -22 -5 -28 0 -7 5 -1 10 12 5 13 8 26 5 28
-2 2 -6 -3 -10 -12z"/>
<path d="M34210 32270 c0 -5 5 -10 10 -10 6 0 10 5 10 10 0 6 -4 10 -10 10 -5
0 -10 -4 -10 -10z"/>
<path d="M30698 29193 c7 -3 16 -2 19 1 4 3 -2 6 -13 5 -11 0 -14 -3 -6 -6z"/>
<path d="M52098 26208 c-29 -34 -33 -44 -20 -52 11 -7 24 4 45 36 34 54 17 65
-25 16z"/>
<path d="M52045 26122 c-5 -4 -18 -17 -29 -29 -18 -21 -18 -22 2 -20 11 0 23
13 30 29 6 15 10 28 9 28 -1 0 -6 -4 -12 -8z"/>
<path d="M11018 25283 c7 -3 16 -2 19 1 4 3 -2 6 -13 5 -11 0 -14 -3 -6 -6z"/>
<path d="M14110 24712 c0 -12 34 -42 48 -42 13 0 15 10 6 34 -6 16 -54 23 -54
8z"/>
<path d="M14490 24680 c0 -5 9 -10 20 -10 11 0 20 5 20 10 0 6 -9 10 -20 10
-11 0 -20 -4 -20 -10z"/>
<path d="M14540 24675 c0 -9 9 -15 24 -15 14 0 28 -4 31 -10 9 -15 45 -12 45
3 0 8 -17 19 -39 25 -50 16 -61 15 -61 -3z"/>
<path d="M14760 24610 c0 -23 50 -57 75 -52 34 6 31 16 -11 41 -38 23 -64 27
-64 11z"/>
<path d="M15456 24381 c-6 -8 -4 -23 10 -101 11 -61 44 -83 44 -30 0 17 -4 30
-10 30 -5 0 -10 11 -10 24 0 61 -19 103 -34 77z"/>
<path d="M15380 24360 c0 -5 7 -10 15 -10 8 0 15 5 15 10 0 6 -7 10 -15 10 -8
0 -15 -4 -15 -10z"/>
<path d="M17875 23140 c-3 -5 -1 -10 4 -10 6 0 11 5 11 10 0 6 -2 10 -4 10 -3
0 -8 -4 -11 -10z"/>
<path d="M50332 21416 c-7 -16 -8 -51 -3 -102 4 -44 4 -82 -1 -85 -12 -8 20
-81 32 -74 6 3 10 25 10 47 0 23 7 65 16 93 16 51 16 53 -6 99 -13 25 -27 46
-30 46 -4 0 -12 -11 -18 -24z"/>
<path d="M9318 20963 c7 -3 16 -2 19 1 4 3 -2 6 -13 5 -11 0 -14 -3 -6 -6z"/>
<path d="M57210 20049 c0 -5 5 -7 10 -4 6 3 10 8 10 11 0 2 -4 4 -10 4 -5 0
-10 -5 -10 -11z"/>
<path d="M57112 20030 c-29 -24 -28 -30 6 -30 35 0 82 21 82 37 0 18 -63 13
-88 -7z"/>
<path d="M57025 19800 c-3 -5 -1 -10 4 -10 6 0 11 5 11 10 0 6 -2 10 -4 10 -3
0 -8 -4 -11 -10z"/>
<path d="M56640 19769 c0 -5 11 -9 25 -9 14 0 25 2 25 4 0 2 -11 6 -25 8 -14
3 -25 1 -25 -3z"/>
<path d="M56535 19750 c3 -5 10 -10 16 -10 5 0 9 5 9 10 0 6 -7 10 -16 10 -8
0 -12 -4 -9 -10z"/>
</g>
</svg>
