<?xml version="1.0" standalone="no"?>
<!DOCTYPE svg PUBLIC "-//W3C//DTD SVG 20010904//EN"
 "http://www.w3.org/TR/2001/REC-SVG-20010904/DTD/svg10.dtd">
<svg version="1.0" xmlns="http://www.w3.org/2000/svg"
 width="1500.000000pt" height="800.000000pt" viewBox="0 0 1500.000000 800.000000"
 preserveAspectRatio="xMidYMid meet">

<g transform="translate(0.000000,800.000000) scale(0.100000,-0.100000)"
fill="#000000" stroke="none">
<path d="M0 4000 l0 -4000 7500 0 7500 0 0 4000 0 4000 -7500 0 -7500 0 0
-4000z m9550 340 c11 -11 20 -27 20 -35 0 -8 -9 -24 -20 -35 -53 -53 -134 16
-83 72 21 24 58 23 83 -2z m-3860 -40 l0 -40 -110 0 -110 0 0 -310 0 -310 -45
0 -45 0 0 310 0 309 -107 3 c-104 3 -108 4 -111 26 -8 53 -12 52 268 52 l260
0 0 -40z m200 -92 c1 -125 2 -131 16 -108 28 45 64 64 129 68 75 4 139 -25
170 -78 18 -31 20 -56 23 -242 l3 -208 -40 0 -40 0 -3 189 c-3 175 -5 192 -24
218 -58 78 -189 57 -225 -35 -5 -13 -9 -102 -9 -198 l0 -174 -40 0 -40 0 0
350 0 350 40 0 40 0 0 -132z m1970 1 l0 -131 26 32 c36 42 74 60 129 60 84 0
155 -45 198 -125 19 -34 22 -56 22 -145 0 -97 -2 -109 -29 -157 -39 -71 -91
-106 -167 -111 -72 -5 -110 9 -149 57 l-30 36 0 -43 0 -42 -40 0 -40 0 0 350
0 350 40 0 40 0 0 -131z m1920 -219 l0 -350 -45 0 -45 0 0 350 0 350 45 0 45
0 0 -350z m-3320 -15 c5 -205 10 -224 60 -250 36 -19 61 -19 105 -1 63 27 69
48 75 256 l5 185 40 0 40 0 3 -262 2 -263 -45 0 -45 0 0 40 0 41 -31 -36 c-78
-88 -223 -66 -275 42 -15 31 -19 71 -22 225 -2 103 -2 195 2 203 4 12 16 15
43 13 l38 -3 5 -190z m550 148 l0 -48 20 30 c54 83 187 88 249 9 l21 -26 39
35 c84 76 216 59 263 -34 15 -29 18 -64 18 -241 l0 -208 -40 0 -40 0 0 190 c0
120 -4 198 -11 214 -12 25 -63 56 -93 56 -35 0 -85 -30 -100 -59 -13 -24 -16
-67 -16 -216 l0 -185 -40 0 -40 0 -1 183 c-1 100 -4 193 -8 207 -4 14 -22 35
-41 48 -47 31 -93 23 -137 -23 l-33 -35 0 -190 0 -190 -45 0 -45 0 0 258 c0
142 3 262 7 265 3 4 21 7 40 7 33 0 33 0 33 -47z m1430 1 l0 -46 26 32 c37 43
75 60 136 60 66 0 123 -31 152 -80 19 -32 21 -55 24 -242 l3 -208 -40 0 -40 0
-3 189 c-3 175 -5 192 -24 218 -12 15 -37 34 -57 42 -51 19 -113 -2 -144 -48
-22 -32 -23 -43 -23 -217 l0 -184 -45 0 -45 0 0 258 c0 142 3 262 7 265 3 4
21 7 40 7 33 0 33 -1 33 -46z m790 24 c82 -43 85 -50 88 -294 l3 -214 -40 0
c-40 0 -41 1 -41 36 l0 36 -25 -30 c-35 -42 -74 -55 -150 -50 -105 7 -160 60
-160 158 0 51 4 63 30 90 33 35 90 54 209 70 92 12 96 14 96 46 0 102 -137
139 -217 59 -31 -31 -35 -32 -68 -22 -19 6 -35 16 -35 24 0 22 73 88 110 100
62 20 151 15 200 -9z m318 -245 l2 -263 -40 0 -40 0 0 266 0 265 38 -3 37 -3
3 -262z"/>
<path d="M7963 4089 c-69 -20 -109 -107 -100 -216 8 -109 62 -169 148 -167 59
1 94 23 123 80 29 55 30 184 1 233 -38 65 -103 91 -172 70z"/>
<path d="M9205 3888 c-16 -4 -63 -12 -103 -19 -89 -13 -116 -33 -116 -83 0
-49 29 -77 86 -83 100 -11 173 55 166 150 -3 42 -3 43 -33 35z"/>
</g>
</svg>
