<?xml version="1.0" encoding="UTF-8"?>
<!DOCTYPE svg PUBLIC "-//W3C//DTD SVG 1.1//EN" "http://www.w3.org/Graphics/SVG/1.1/DTD/svg11.dtd">
<svg xmlns="http://www.w3.org/2000/svg" version="1.1" width="1500px" height="800px" style="shape-rendering:geometricPrecision; text-rendering:geometricPrecision; image-rendering:optimizeQuality; fill-rule:evenodd; clip-rule:evenodd" xmlns:xlink="http://www.w3.org/1999/xlink">
<g><path style="opacity:1" fill="#333333" d="M -0.5,-0.5 C 499.5,-0.5 999.5,-0.5 1499.5,-0.5C 1499.5,266.167 1499.5,532.833 1499.5,799.5C 999.5,799.5 499.5,799.5 -0.5,799.5C -0.5,532.833 -0.5,266.167 -0.5,-0.5 Z"/></g>
<g><path style="opacity:1" fill="#f0f0f0" d="M 947.5,363.5 C 955.305,363.101 957.638,366.268 954.5,373C 947.752,375.909 944.586,373.743 945,366.5C 946.045,365.627 946.878,364.627 947.5,363.5 Z"/></g>
<g><path style="opacity:1" fill="#fbfbfb" d="M 516.5,365.5 C 533.833,365.5 551.167,365.5 568.5,365.5C 568.5,368.167 568.5,370.833 568.5,373.5C 561.167,373.5 553.833,373.5 546.5,373.5C 546.5,394.167 546.5,414.833 546.5,435.5C 543.833,435.5 541.167,435.5 538.5,435.5C 538.5,414.5 538.5,393.5 538.5,372.5C 531.167,372.5 523.833,372.5 516.5,372.5C 516.5,370.167 516.5,367.833 516.5,365.5 Z"/></g>
<g><path style="opacity:1" fill="#fcfcfc" d="M 580.5,365.5 C 583.167,365.5 585.833,365.5 588.5,365.5C 588.334,374.173 588.5,382.84 589,391.5C 593.512,383.432 600.345,380.599 609.5,383C 615.159,383.996 618.993,387.162 621,392.5C 622.449,406.761 622.949,421.094 622.5,435.5C 619.833,435.5 617.167,435.5 614.5,435.5C 614.667,422.829 614.5,410.162 614,397.5C 608.148,388.432 600.814,387.099 592,393.5C 591,395.167 590,396.833 589,398.5C 588.5,410.829 588.333,423.162 588.5,435.5C 585.833,435.5 583.167,435.5 580.5,435.5C 580.5,412.167 580.5,388.833 580.5,365.5 Z"/></g>
<g><path style="opacity:1" fill="#fafafa" d="M 777.5,365.5 C 780.167,365.5 782.833,365.5 785.5,365.5C 785.334,374.173 785.5,382.84 786,391.5C 790.947,383.283 798.114,380.45 807.5,383C 818.68,388.02 824.013,396.687 823.5,409C 823.531,427.972 814.198,436.972 795.5,436C 791.388,434.221 788.222,431.388 786,427.5C 785.503,430.146 785.336,432.813 785.5,435.5C 782.833,435.5 780.167,435.5 777.5,435.5C 777.5,412.167 777.5,388.833 777.5,365.5 Z"/></g>
<g><path style="opacity:1" fill="#ececec" d="M 968.5,365.5 C 971.5,365.5 974.5,365.5 977.5,365.5C 977.5,388.833 977.5,412.167 977.5,435.5C 974.5,435.5 971.5,435.5 968.5,435.5C 968.5,412.167 968.5,388.833 968.5,365.5 Z"/></g>
<g><path style="opacity:1" fill="#979797" d="M 516.5,365.5 C 516.5,367.833 516.5,370.167 516.5,372.5C 523.833,372.5 531.167,372.5 538.5,372.5C 538.5,393.5 538.5,414.5 538.5,435.5C 537.503,415.007 537.169,394.34 537.5,373.5C 530.167,373.5 522.833,373.5 515.5,373.5C 515.194,370.615 515.527,367.948 516.5,365.5 Z"/></g>
<g><path style="opacity:1" fill="#f9f9f9" d="M 693.5,435.5 C 693.5,418.167 693.5,400.833 693.5,383.5C 695.833,383.5 698.167,383.5 700.5,383.5C 700.336,386.187 700.503,388.854 701,391.5C 705.902,382.865 713.069,380.365 722.5,384C 725.667,385.833 728.167,388.333 730,391.5C 736.582,382.223 745.082,380.056 755.5,385C 757.7,387.234 759.533,389.734 761,392.5C 761.5,406.829 761.667,421.163 761.5,435.5C 758.833,435.5 756.167,435.5 753.5,435.5C 753.667,422.163 753.5,408.829 753,395.5C 748.832,389.514 743.332,388.014 736.5,391C 734.622,392.543 733.122,394.376 732,396.5C 731.5,409.496 731.333,422.496 731.5,435.5C 728.833,435.5 726.167,435.5 723.5,435.5C 723.667,422.496 723.5,409.496 723,396.5C 715.628,386.889 708.628,387.222 702,397.5C 701.5,410.162 701.333,422.829 701.5,435.5C 698.833,435.5 696.167,435.5 693.5,435.5 Z"/></g>
<g><path style="opacity:1" fill="#fafafa" d="M 836.5,435.5 C 836.5,418.167 836.5,400.833 836.5,383.5C 838.833,383.5 841.167,383.5 843.5,383.5C 843.336,386.187 843.503,388.854 844,391.5C 848.947,383.283 856.114,380.45 865.5,383C 871.731,384.963 875.564,389.13 877,395.5C 877.5,408.829 877.667,422.163 877.5,435.5C 874.833,435.5 872.167,435.5 869.5,435.5C 869.667,422.829 869.5,410.162 869,397.5C 865.551,390.526 860.051,388.026 852.5,390C 849.333,391.833 846.833,394.333 845,397.5C 844.5,410.162 844.333,422.829 844.5,435.5C 841.833,435.5 839.167,435.5 836.5,435.5 Z"/></g>
<g><path style="opacity:1" fill="#f8f8f8" d="M 905.5,382.5 C 912.549,381.718 919.216,382.885 925.5,386C 927.359,387.558 928.859,389.391 930,391.5C 931.432,406.108 931.932,420.775 931.5,435.5C 928.833,435.5 926.167,435.5 923.5,435.5C 923.663,433.143 923.497,430.81 923,428.5C 919.634,434.193 914.634,436.86 908,436.5C 894.975,436.142 888.975,429.475 890,416.5C 892.451,410.384 896.951,406.884 903.5,406C 910.125,405.267 916.625,404.1 923,402.5C 924.654,396.307 922.487,392.14 916.5,390C 908.724,388.591 902.558,391.091 898,397.5C 895.765,396.632 893.598,395.632 891.5,394.5C 892.457,392.082 893.791,389.916 895.5,388C 898.55,385.497 901.883,383.664 905.5,382.5 Z"/></g>
<g><path style="opacity:1" fill="#fcfcfc" d="M 637.5,383.5 C 639.833,383.5 642.167,383.5 644.5,383.5C 644.172,395.345 644.505,407.012 645.5,418.5C 647.871,427.686 653.538,430.519 662.5,427C 666.944,424.889 669.444,421.389 670,416.5C 670.5,405.505 670.667,394.505 670.5,383.5C 672.833,383.5 675.167,383.5 677.5,383.5C 677.5,400.833 677.5,418.167 677.5,435.5C 675.167,435.5 672.833,435.5 670.5,435.5C 670.665,432.482 670.498,429.482 670,426.5C 669.283,427.044 668.783,427.711 668.5,428.5C 660,438.315 650.833,438.981 641,430.5C 640,428.5 639,426.5 638,424.5C 637.5,410.837 637.333,397.171 637.5,383.5 Z"/></g>
<g><path style="opacity:1" fill="#bfbfbf" d="M 637.5,383.5 C 639.948,382.527 642.615,382.194 645.5,382.5C 645.5,394.5 645.5,406.5 645.5,418.5C 644.505,407.012 644.172,395.345 644.5,383.5C 642.167,383.5 639.833,383.5 637.5,383.5 Z"/></g>
<g><path style="opacity:1" fill="#c2c2c2" d="M 670.5,383.5 C 672.948,382.527 675.615,382.194 678.5,382.5C 678.83,400.341 678.497,418.008 677.5,435.5C 677.5,418.167 677.5,400.833 677.5,383.5C 675.167,383.5 672.833,383.5 670.5,383.5 Z"/></g>
<g><path style="opacity:1" fill="#959595" d="M 700.5,383.5 C 698.167,383.5 695.833,383.5 693.5,383.5C 693.5,400.833 693.5,418.167 693.5,435.5C 692.503,418.008 692.17,400.341 692.5,382.5C 695.385,382.194 698.052,382.527 700.5,383.5 Z"/></g>
<g><path style="opacity:1" fill="#959595" d="M 843.5,383.5 C 841.167,383.5 838.833,383.5 836.5,383.5C 836.5,400.833 836.5,418.167 836.5,435.5C 835.503,418.008 835.17,400.341 835.5,382.5C 838.385,382.194 841.052,382.527 843.5,383.5 Z"/></g>
<g><path style="opacity:1" fill="#686868" d="M 954.5,383.5 C 951.833,383.5 949.167,383.5 946.5,383.5C 946.5,400.833 946.5,418.167 946.5,435.5C 945.503,418.008 945.17,400.341 945.5,382.5C 948.713,382.19 951.713,382.523 954.5,383.5 Z"/></g>
<g><path style="opacity:1" fill="#fcfcfc" d="M 954.5,383.5 C 954.5,400.833 954.5,418.167 954.5,435.5C 951.833,435.5 949.167,435.5 946.5,435.5C 946.5,418.167 946.5,400.833 946.5,383.5C 949.167,383.5 951.833,383.5 954.5,383.5 Z"/></g>
<g><path style="opacity:1" fill="#353535" d="M 795.5,389.5 C 805.799,388.227 812.299,392.561 815,402.5C 817.088,411.889 814.921,420.055 808.5,427C 796.691,431.845 789.191,428.012 786,415.5C 783.343,404.516 786.51,395.85 795.5,389.5 Z"/></g>
<g><path style="opacity:1" fill="#373737" d="M 922.5,409.5 C 925.377,424.451 919.044,430.951 903.5,429C 896.987,425.433 895.987,420.766 900.5,415C 907.804,412.586 915.138,410.753 922.5,409.5 Z"/></g>
<g><path style="opacity:1" fill="#808080" d="M 670.5,435.5 C 669.833,433.167 669.167,430.833 668.5,428.5C 668.783,427.711 669.283,427.044 670,426.5C 670.498,429.482 670.665,432.482 670.5,435.5 Z"/></g>
</svg>
